solid CATIA STL
  facet normal  -0.000000e+000  0.000000e+000  1.000000e+000
    outer loop
      vertex  1.825000e+001  6.939843e+001  1.500000e+000
      vertex -1.825000e+001  6.939843e+001  1.500000e+000
      vertex  1.863268e+001  6.932231e+001  1.500000e+000
    endloop
  endfacet
  facet normal  0.000000e+000  0.000000e+000  1.000000e+000
    outer loop
      vertex  1.863268e+001  6.932231e+001  1.500000e+000
      vertex -1.825000e+001  6.939843e+001  1.500000e+000
      vertex -1.863268e+001  6.932231e+001  1.500000e+000
    endloop
  endfacet
  facet normal  -0.000000e+000  0.000000e+000  1.000000e+000
    outer loop
      vertex  1.863268e+001  6.932231e+001  1.500000e+000
      vertex -1.863268e+001  6.932231e+001  1.500000e+000
      vertex  1.895711e+001  6.910554e+001  1.500000e+000
    endloop
  endfacet
  facet normal  0.000000e+000  0.000000e+000  1.000000e+000
    outer loop
      vertex  1.895711e+001  6.910554e+001  1.500000e+000
      vertex -1.863268e+001  6.932231e+001  1.500000e+000
      vertex -1.895711e+001  6.910554e+001  1.500000e+000
    endloop
  endfacet
  facet normal  -0.000000e+000  0.000000e+000  1.000000e+000
    outer loop
      vertex  1.895711e+001  6.910554e+001  1.500000e+000
      vertex -1.895711e+001  6.910554e+001  1.500000e+000
      vertex  1.917388e+001  6.878111e+001  1.500000e+000
    endloop
  endfacet
  facet normal  0.000000e+000  0.000000e+000  1.000000e+000
    outer loop
      vertex  1.917388e+001  6.878111e+001  1.500000e+000
      vertex -1.895711e+001  6.910554e+001  1.500000e+000
      vertex -1.917388e+001  6.878111e+001  1.500000e+000
    endloop
  endfacet
  facet normal  -0.000000e+000  0.000000e+000  1.000000e+000
    outer loop
      vertex  1.917388e+001  6.878111e+001  1.500000e+000
      vertex -1.917388e+001  6.878111e+001  1.500000e+000
      vertex  1.925000e+001  6.839843e+001  1.500000e+000
    endloop
  endfacet
  facet normal  0.000000e+000  0.000000e+000  1.000000e+000
    outer loop
      vertex  1.925000e+001  6.839843e+001  1.500000e+000
      vertex -1.917388e+001  6.878111e+001  1.500000e+000
      vertex -1.925000e+001  6.839843e+001  1.500000e+000
    endloop
  endfacet
  facet normal  -0.000000e+000  0.000000e+000  1.000000e+000
    outer loop
      vertex  1.925000e+001  6.839843e+001  1.500000e+000
      vertex -1.925000e+001  6.839843e+001  1.500000e+000
      vertex  6.150000e+000  3.659843e+001  1.500000e+000
    endloop
  endfacet
  facet normal  0.000000e+000  0.000000e+000  1.000000e+000
    outer loop
      vertex  6.150000e+000  3.659843e+001  1.500000e+000
      vertex -1.925000e+001  6.839843e+001  1.500000e+000
      vertex -6.150000e+000  3.659843e+001  1.500000e+000
    endloop
  endfacet
  facet normal  0.000000e+000  0.000000e+000  9.999999e-001
    outer loop
      vertex -6.150000e+000  3.659843e+001  1.500000e+000
      vertex -1.925000e+001  6.839843e+001  1.500000e+000
      vertex -6.150000e+000  2.939843e+001  1.500000e+000
    endloop
  endfacet
  facet normal  0.000000e+000  0.000000e+000  1.000000e+000
    outer loop
      vertex -6.150000e+000  2.939843e+001  1.500000e+000
      vertex -1.925000e+001  6.839843e+001  1.500000e+000
      vertex -1.925000e+001  2.939843e+001  1.500000e+000
    endloop
  endfacet
  facet normal  -0.000000e+000  0.000000e+000  1.000000e+000
    outer loop
      vertex -6.150000e+000  2.939843e+001  1.500000e+000
      vertex -1.925000e+001  2.939843e+001  1.500000e+000
      vertex -6.226120e+000  2.901575e+001  1.500000e+000
    endloop
  endfacet
  facet normal  0.000000e+000  0.000000e+000  1.000000e+000
    outer loop
      vertex -6.226120e+000  2.901575e+001  1.500000e+000
      vertex -1.925000e+001  2.939843e+001  1.500000e+000
      vertex -1.917388e+001  2.901575e+001  1.500000e+000
    endloop
  endfacet
  facet normal  -0.000000e+000  0.000000e+000  1.000000e+000
    outer loop
      vertex -6.226120e+000  2.901575e+001  1.500000e+000
      vertex -1.917388e+001  2.901575e+001  1.500000e+000
      vertex -6.442893e+000  2.869132e+001  1.500000e+000
    endloop
  endfacet
  facet normal  0.000000e+000  0.000000e+000  1.000000e+000
    outer loop
      vertex -6.442893e+000  2.869132e+001  1.500000e+000
      vertex -1.917388e+001  2.901575e+001  1.500000e+000
      vertex -1.895711e+001  2.869132e+001  1.500000e+000
    endloop
  endfacet
  facet normal  -0.000000e+000  0.000000e+000  1.000000e+000
    outer loop
      vertex -6.442893e+000  2.869132e+001  1.500000e+000
      vertex -1.895711e+001  2.869132e+001  1.500000e+000
      vertex -6.767316e+000  2.847455e+001  1.500000e+000
    endloop
  endfacet
  facet normal  0.000000e+000  0.000000e+000  1.000000e+000
    outer loop
      vertex -6.767316e+000  2.847455e+001  1.500000e+000
      vertex -1.895711e+001  2.869132e+001  1.500000e+000
      vertex -1.863268e+001  2.847455e+001  1.500000e+000
    endloop
  endfacet
  facet normal  -0.000000e+000  0.000000e+000  9.999999e-001
    outer loop
      vertex -6.767316e+000  2.847455e+001  1.500000e+000
      vertex -1.863268e+001  2.847455e+001  1.500000e+000
      vertex -7.150000e+000  2.839843e+001  1.500000e+000
    endloop
  endfacet
  facet normal  0.000000e+000  0.000000e+000  9.999999e-001
    outer loop
      vertex -7.150000e+000  2.839843e+001  1.500000e+000
      vertex -1.863268e+001  2.847455e+001  1.500000e+000
      vertex -1.825000e+001  2.839843e+001  1.500000e+000
    endloop
  endfacet
  facet normal  -0.000000e+000  0.000000e+000  1.000000e+000
    outer loop
      vertex  1.925000e+001  6.839843e+001  1.500000e+000
      vertex  6.150000e+000  3.659843e+001  1.500000e+000
      vertex  1.925000e+001  2.939843e+001  1.500000e+000
    endloop
  endfacet
  facet normal  0.000000e+000  0.000000e+000  9.999999e-001
    outer loop
      vertex  1.925000e+001  2.939843e+001  1.500000e+000
      vertex  6.150000e+000  3.659843e+001  1.500000e+000
      vertex  6.150000e+000  2.939843e+001  1.500000e+000
    endloop
  endfacet
  facet normal  -0.000000e+000  0.000000e+000  1.000000e+000
    outer loop
      vertex  1.925000e+001  2.939843e+001  1.500000e+000
      vertex  6.150000e+000  2.939843e+001  1.500000e+000
      vertex  1.917388e+001  2.901575e+001  1.500000e+000
    endloop
  endfacet
  facet normal  0.000000e+000  0.000000e+000  1.000000e+000
    outer loop
      vertex  1.917388e+001  2.901575e+001  1.500000e+000
      vertex  6.150000e+000  2.939843e+001  1.500000e+000
      vertex  6.226120e+000  2.901575e+001  1.500000e+000
    endloop
  endfacet
  facet normal  -0.000000e+000  0.000000e+000  1.000000e+000
    outer loop
      vertex  1.917388e+001  2.901575e+001  1.500000e+000
      vertex  6.226120e+000  2.901575e+001  1.500000e+000
      vertex  1.895711e+001  2.869132e+001  1.500000e+000
    endloop
  endfacet
  facet normal  0.000000e+000  0.000000e+000  1.000000e+000
    outer loop
      vertex  1.895711e+001  2.869132e+001  1.500000e+000
      vertex  6.226120e+000  2.901575e+001  1.500000e+000
      vertex  6.442893e+000  2.869132e+001  1.500000e+000
    endloop
  endfacet
  facet normal  -0.000000e+000  0.000000e+000  1.000000e+000
    outer loop
      vertex  1.895711e+001  2.869132e+001  1.500000e+000
      vertex  6.442893e+000  2.869132e+001  1.500000e+000
      vertex  1.863268e+001  2.847455e+001  1.500000e+000
    endloop
  endfacet
  facet normal  0.000000e+000  0.000000e+000  1.000000e+000
    outer loop
      vertex  1.863268e+001  2.847455e+001  1.500000e+000
      vertex  6.442893e+000  2.869132e+001  1.500000e+000
      vertex  6.767316e+000  2.847455e+001  1.500000e+000
    endloop
  endfacet
  facet normal  -0.000000e+000  0.000000e+000  9.999999e-001
    outer loop
      vertex  1.863268e+001  2.847455e+001  1.500000e+000
      vertex  6.767316e+000  2.847455e+001  1.500000e+000
      vertex  1.825000e+001  2.839843e+001  1.500000e+000
    endloop
  endfacet
  facet normal  0.000000e+000  0.000000e+000  9.999999e-001
    outer loop
      vertex  1.825000e+001  2.839843e+001  1.500000e+000
      vertex  6.767316e+000  2.847455e+001  1.500000e+000
      vertex  7.150000e+000  2.839843e+001  1.500000e+000
    endloop
  endfacet
  facet normal  0.000000e+000  1.000000e+000  -0.000000e+000
    outer loop
      vertex -7.150000e+000  2.839843e+001  3.500000e+000
      vertex -7.150000e+000  2.839843e+001  1.500000e+000
      vertex -1.825000e+001  2.839843e+001  3.500000e+000
    endloop
  endfacet
  facet normal  0.000000e+000  1.000000e+000  0.000000e+000
    outer loop
      vertex -1.825000e+001  2.839843e+001  3.500000e+000
      vertex -7.150000e+000  2.839843e+001  1.500000e+000
      vertex -1.825000e+001  2.839843e+001  1.500000e+000
    endloop
  endfacet
  facet normal -1.000000e+000  -0.000000e+000  0.000000e+000
    outer loop
      vertex -6.150000e+000  2.939843e+001  3.500000e+000
      vertex -6.150000e+000  3.659843e+001  3.500000e+000
      vertex -6.150000e+000  2.939843e+001  1.500000e+000
    endloop
  endfacet
  facet normal -1.000000e+000  0.000000e+000  0.000000e+000
    outer loop
      vertex -6.150000e+000  2.939843e+001  1.500000e+000
      vertex -6.150000e+000  3.659843e+001  3.500000e+000
      vertex -6.150000e+000  3.659843e+001  1.500000e+000
    endloop
  endfacet
  facet normal  0.000000e+000  0.000000e+000  1.000000e+000
    outer loop
      vertex  7.150000e+000  2.839843e+001  3.500000e+000
      vertex  5.226120e+000  2.801575e+001  3.500000e+000
      vertex  1.825000e+001  2.839843e+001  3.500000e+000
    endloop
  endfacet
  facet normal  0.000000e+000  -0.000000e+000  1.000000e+000
    outer loop
      vertex -1.825000e+001  6.939843e+001  3.500000e+000
      vertex  1.825000e+001  6.939843e+001  3.500000e+000
      vertex  1.925000e+001  7.039843e+001  3.500000e+000
    endloop
  endfacet
  facet normal  0.000000e+000  0.000000e+000  1.000000e+000
    outer loop
      vertex -1.825000e+001  6.939843e+001  3.500000e+000
      vertex  1.925000e+001  7.039843e+001  3.500000e+000
      vertex -1.925000e+001  7.039843e+001  3.500000e+000
    endloop
  endfacet
  facet normal  0.000000e+000  0.000000e+000  1.000000e+000
    outer loop
      vertex -1.825000e+001  6.939843e+001  3.500000e+000
      vertex -1.925000e+001  7.039843e+001  3.500000e+000
      vertex -2.017388e+001  6.978111e+001  3.500000e+000
    endloop
  endfacet
  facet normal  0.000000e+000  0.000000e+000  1.000000e+000
    outer loop
      vertex -1.825000e+001  6.939843e+001  3.500000e+000
      vertex -2.017388e+001  6.978111e+001  3.500000e+000
      vertex -2.025000e+001  6.939843e+001  3.500000e+000
    endloop
  endfacet
  facet normal  0.000000e+000  -0.000000e+000  1.000000e+000
    outer loop
      vertex  5.150000e+000  2.839843e+001  3.500000e+000
      vertex  5.226120e+000  2.801575e+001  3.500000e+000
      vertex  7.150000e+000  2.839843e+001  3.500000e+000
    endloop
  endfacet
  facet normal  0.000000e+000  0.000000e+000  1.000000e+000
    outer loop
      vertex  5.150000e+000  2.839843e+001  3.500000e+000
      vertex  7.150000e+000  2.839843e+001  3.500000e+000
      vertex  6.767316e+000  2.847455e+001  3.500000e+000
    endloop
  endfacet
  facet normal  0.000000e+000  0.000000e+000  1.000000e+000
    outer loop
      vertex  5.150000e+000  2.839843e+001  3.500000e+000
      vertex  6.767316e+000  2.847455e+001  3.500000e+000
      vertex  6.442893e+000  2.869132e+001  3.500000e+000
    endloop
  endfacet
  facet normal  0.000000e+000  0.000000e+000  1.000000e+000
    outer loop
      vertex  5.150000e+000  2.839843e+001  3.500000e+000
      vertex  6.442893e+000  2.869132e+001  3.500000e+000
      vertex  6.226120e+000  2.901575e+001  3.500000e+000
    endloop
  endfacet
  facet normal  0.000000e+000  0.000000e+000  9.999999e-001
    outer loop
      vertex  5.150000e+000  2.839843e+001  3.500000e+000
      vertex  6.226120e+000  2.901575e+001  3.500000e+000
      vertex  6.150000e+000  2.939843e+001  3.500000e+000
    endloop
  endfacet
  facet normal  0.000000e+000  -0.000000e+000  1.000000e+000
    outer loop
      vertex  5.150000e+000  2.839843e+001  3.500000e+000
      vertex  6.150000e+000  2.939843e+001  3.500000e+000
      vertex  6.150000e+000  3.659843e+001  3.500000e+000
    endloop
  endfacet
  facet normal  0.000000e+000  0.000000e+000  1.000000e+000
    outer loop
      vertex  5.150000e+000  2.839843e+001  3.500000e+000
      vertex  6.150000e+000  3.659843e+001  3.500000e+000
      vertex  5.150000e+000  3.559843e+001  3.500000e+000
    endloop
  endfacet
  facet normal  0.000000e+000  -0.000000e+000  1.000000e+000
    outer loop
      vertex -2.025000e+001  2.839843e+001  3.500000e+000
      vertex -2.017388e+001  2.801575e+001  3.500000e+000
      vertex -1.825000e+001  2.839843e+001  3.500000e+000
    endloop
  endfacet
  facet normal  0.000000e+000  0.000000e+000  1.000000e+000
    outer loop
      vertex -2.025000e+001  2.839843e+001  3.500000e+000
      vertex -1.825000e+001  2.839843e+001  3.500000e+000
      vertex -1.863268e+001  2.847455e+001  3.500000e+000
    endloop
  endfacet
  facet normal  0.000000e+000  0.000000e+000  1.000000e+000
    outer loop
      vertex -2.025000e+001  2.839843e+001  3.500000e+000
      vertex -1.863268e+001  2.847455e+001  3.500000e+000
      vertex -1.895711e+001  2.869132e+001  3.500000e+000
    endloop
  endfacet
  facet normal  0.000000e+000  0.000000e+000  1.000000e+000
    outer loop
      vertex -2.025000e+001  2.839843e+001  3.500000e+000
      vertex -1.895711e+001  2.869132e+001  3.500000e+000
      vertex -1.917388e+001  2.901575e+001  3.500000e+000
    endloop
  endfacet
  facet normal  0.000000e+000  0.000000e+000  9.999999e-001
    outer loop
      vertex -2.025000e+001  2.839843e+001  3.500000e+000
      vertex -1.917388e+001  2.901575e+001  3.500000e+000
      vertex -1.925000e+001  2.939843e+001  3.500000e+000
    endloop
  endfacet
  facet normal  0.000000e+000  -0.000000e+000  1.000000e+000
    outer loop
      vertex -2.025000e+001  2.839843e+001  3.500000e+000
      vertex -1.925000e+001  2.939843e+001  3.500000e+000
      vertex -1.925000e+001  6.839843e+001  3.500000e+000
    endloop
  endfacet
  facet normal  0.000000e+000  0.000000e+000  9.999999e-001
    outer loop
      vertex -2.025000e+001  2.839843e+001  3.500000e+000
      vertex -1.925000e+001  6.839843e+001  3.500000e+000
      vertex -2.025000e+001  6.939843e+001  3.500000e+000
    endloop
  endfacet
  facet normal  0.000000e+000  0.000000e+000  1.000000e+000
    outer loop
      vertex -5.150000e+000  2.839843e+001  3.500000e+000
      vertex -5.150000e+000  3.559843e+001  3.500000e+000
      vertex -6.150000e+000  3.659843e+001  3.500000e+000
    endloop
  endfacet
  facet normal  0.000000e+000  0.000000e+000  1.000000e+000
    outer loop
      vertex -5.150000e+000  2.839843e+001  3.500000e+000
      vertex -6.150000e+000  3.659843e+001  3.500000e+000
      vertex -6.150000e+000  2.939843e+001  3.500000e+000
    endloop
  endfacet
  facet normal  0.000000e+000  0.000000e+000  9.999999e-001
    outer loop
      vertex -5.150000e+000  2.839843e+001  3.500000e+000
      vertex -6.150000e+000  2.939843e+001  3.500000e+000
      vertex -6.226120e+000  2.901575e+001  3.500000e+000
    endloop
  endfacet
  facet normal  0.000000e+000  0.000000e+000  1.000000e+000
    outer loop
      vertex -5.150000e+000  2.839843e+001  3.500000e+000
      vertex -6.226120e+000  2.901575e+001  3.500000e+000
      vertex -6.442893e+000  2.869132e+001  3.500000e+000
    endloop
  endfacet
  facet normal  0.000000e+000  0.000000e+000  1.000000e+000
    outer loop
      vertex -5.150000e+000  2.839843e+001  3.500000e+000
      vertex -6.442893e+000  2.869132e+001  3.500000e+000
      vertex -6.767316e+000  2.847455e+001  3.500000e+000
    endloop
  endfacet
  facet normal  0.000000e+000  0.000000e+000  1.000000e+000
    outer loop
      vertex -5.150000e+000  2.839843e+001  3.500000e+000
      vertex -6.767316e+000  2.847455e+001  3.500000e+000
      vertex -7.150000e+000  2.839843e+001  3.500000e+000
    endloop
  endfacet
  facet normal  -0.000000e+000  0.000000e+000  1.000000e+000
    outer loop
      vertex -5.150000e+000  2.839843e+001  3.500000e+000
      vertex -7.150000e+000  2.839843e+001  3.500000e+000
      vertex -5.226120e+000  2.801575e+001  3.500000e+000
    endloop
  endfacet
  facet normal  0.000000e+000  -0.000000e+000  9.999999e-001
    outer loop
      vertex -2.025000e+001  6.939843e+001  3.500000e+000
      vertex -1.925000e+001  6.839843e+001  3.500000e+000
      vertex -1.917388e+001  6.878111e+001  3.500000e+000
    endloop
  endfacet
  facet normal  0.000000e+000  -0.000000e+000  1.000000e+000
    outer loop
      vertex -2.025000e+001  6.939843e+001  3.500000e+000
      vertex -1.917388e+001  6.878111e+001  3.500000e+000
      vertex -1.895711e+001  6.910554e+001  3.500000e+000
    endloop
  endfacet
  facet normal  0.000000e+000  -0.000000e+000  1.000000e+000
    outer loop
      vertex -2.025000e+001  6.939843e+001  3.500000e+000
      vertex -1.895711e+001  6.910554e+001  3.500000e+000
      vertex -1.863268e+001  6.932231e+001  3.500000e+000
    endloop
  endfacet
  facet normal  0.000000e+000  -0.000000e+000  1.000000e+000
    outer loop
      vertex -2.025000e+001  6.939843e+001  3.500000e+000
      vertex -1.863268e+001  6.932231e+001  3.500000e+000
      vertex -1.825000e+001  6.939843e+001  3.500000e+000
    endloop
  endfacet
  facet normal  0.000000e+000  0.000000e+000  1.000000e+000
    outer loop
      vertex  2.025000e+001  6.939843e+001  3.500000e+000
      vertex  2.017388e+001  6.978111e+001  3.500000e+000
      vertex  1.825000e+001  6.939843e+001  3.500000e+000
    endloop
  endfacet
  facet normal  -0.000000e+000  0.000000e+000  1.000000e+000
    outer loop
      vertex  2.025000e+001  6.939843e+001  3.500000e+000
      vertex  1.825000e+001  6.939843e+001  3.500000e+000
      vertex  1.863268e+001  6.932231e+001  3.500000e+000
    endloop
  endfacet
  facet normal  -0.000000e+000  0.000000e+000  1.000000e+000
    outer loop
      vertex  2.025000e+001  6.939843e+001  3.500000e+000
      vertex  1.863268e+001  6.932231e+001  3.500000e+000
      vertex  1.895711e+001  6.910554e+001  3.500000e+000
    endloop
  endfacet
  facet normal  -0.000000e+000  0.000000e+000  1.000000e+000
    outer loop
      vertex  2.025000e+001  6.939843e+001  3.500000e+000
      vertex  1.895711e+001  6.910554e+001  3.500000e+000
      vertex  1.917388e+001  6.878111e+001  3.500000e+000
    endloop
  endfacet
  facet normal  -0.000000e+000  0.000000e+000  9.999999e-001
    outer loop
      vertex  2.025000e+001  6.939843e+001  3.500000e+000
      vertex  1.917388e+001  6.878111e+001  3.500000e+000
      vertex  1.925000e+001  6.839843e+001  3.500000e+000
    endloop
  endfacet
  facet normal  -0.000000e+000  0.000000e+000  1.000000e+000
    outer loop
      vertex  2.025000e+001  6.939843e+001  3.500000e+000
      vertex  1.925000e+001  6.839843e+001  3.500000e+000
      vertex  1.925000e+001  2.939843e+001  3.500000e+000
    endloop
  endfacet
  facet normal  -0.000000e+000  0.000000e+000  9.999999e-001
    outer loop
      vertex  2.025000e+001  6.939843e+001  3.500000e+000
      vertex  1.925000e+001  2.939843e+001  3.500000e+000
      vertex  2.025000e+001  2.839843e+001  3.500000e+000
    endloop
  endfacet
  facet normal  0.000000e+000  0.000000e+000  9.999999e-001
    outer loop
      vertex  2.025000e+001  2.839843e+001  3.500000e+000
      vertex  1.925000e+001  2.939843e+001  3.500000e+000
      vertex  1.917388e+001  2.901575e+001  3.500000e+000
    endloop
  endfacet
  facet normal  0.000000e+000  0.000000e+000  1.000000e+000
    outer loop
      vertex  2.025000e+001  2.839843e+001  3.500000e+000
      vertex  1.917388e+001  2.901575e+001  3.500000e+000
      vertex  1.895711e+001  2.869132e+001  3.500000e+000
    endloop
  endfacet
  facet normal  0.000000e+000  0.000000e+000  1.000000e+000
    outer loop
      vertex  2.025000e+001  2.839843e+001  3.500000e+000
      vertex  1.895711e+001  2.869132e+001  3.500000e+000
      vertex  1.863268e+001  2.847455e+001  3.500000e+000
    endloop
  endfacet
  facet normal  0.000000e+000  0.000000e+000  1.000000e+000
    outer loop
      vertex  2.025000e+001  2.839843e+001  3.500000e+000
      vertex  1.863268e+001  2.847455e+001  3.500000e+000
      vertex  1.825000e+001  2.839843e+001  3.500000e+000
    endloop
  endfacet
  facet normal  -0.000000e+000  0.000000e+000  1.000000e+000
    outer loop
      vertex  2.025000e+001  2.839843e+001  3.500000e+000
      vertex  1.825000e+001  2.839843e+001  3.500000e+000
      vertex  5.226120e+000  2.801575e+001  3.500000e+000
    endloop
  endfacet
  facet normal  0.000000e+000  0.000000e+000  1.000000e+000
    outer loop
      vertex  2.025000e+001  2.839843e+001  3.500000e+000
      vertex  5.226120e+000  2.801575e+001  3.500000e+000
      vertex  2.017388e+001  2.801575e+001  3.500000e+000
    endloop
  endfacet
  facet normal  0.000000e+000  -0.000000e+000  1.000000e+000
    outer loop
      vertex -6.150000e+000  3.659843e+001  3.500000e+000
      vertex -5.150000e+000  3.559843e+001  3.500000e+000
      vertex  6.150000e+000  3.659843e+001  3.500000e+000
    endloop
  endfacet
  facet normal  0.000000e+000  0.000000e+000  1.000000e+000
    outer loop
      vertex  6.150000e+000  3.659843e+001  3.500000e+000
      vertex -5.150000e+000  3.559843e+001  3.500000e+000
      vertex  5.150000e+000  3.559843e+001  3.500000e+000
    endloop
  endfacet
  facet normal  0.000000e+000  0.000000e+000  1.000000e+000
    outer loop
      vertex -1.963268e+001  7.032231e+001  3.500000e+000
      vertex -1.995711e+001  7.010554e+001  3.500000e+000
      vertex -1.925000e+001  7.039843e+001  3.500000e+000
    endloop
  endfacet
  facet normal  0.000000e+000  0.000000e+000  1.000000e+000
    outer loop
      vertex -1.925000e+001  7.039843e+001  3.500000e+000
      vertex -1.995711e+001  7.010554e+001  3.500000e+000
      vertex -2.017388e+001  6.978111e+001  3.500000e+000
    endloop
  endfacet
  facet normal  0.000000e+000  0.000000e+000  9.999999e-001
    outer loop
      vertex  2.017388e+001  6.978111e+001  3.500000e+000
      vertex  1.995711e+001  7.010554e+001  3.500000e+000
      vertex  1.825000e+001  6.939843e+001  3.500000e+000
    endloop
  endfacet
  facet normal  0.000000e+000  0.000000e+000  1.000000e+000
    outer loop
      vertex  1.825000e+001  6.939843e+001  3.500000e+000
      vertex  1.995711e+001  7.010554e+001  3.500000e+000
      vertex  1.963268e+001  7.032231e+001  3.500000e+000
    endloop
  endfacet
  facet normal  0.000000e+000  0.000000e+000  9.999999e-001
    outer loop
      vertex  1.825000e+001  6.939843e+001  3.500000e+000
      vertex  1.963268e+001  7.032231e+001  3.500000e+000
      vertex  1.925000e+001  7.039843e+001  3.500000e+000
    endloop
  endfacet
  facet normal  -0.000000e+000  0.000000e+000  1.000000e+000
    outer loop
      vertex -7.150000e+000  2.839843e+001  3.500000e+000
      vertex -1.825000e+001  2.839843e+001  3.500000e+000
      vertex -5.226120e+000  2.801575e+001  3.500000e+000
    endloop
  endfacet
  facet normal  0.000000e+000  0.000000e+000  1.000000e+000
    outer loop
      vertex -5.226120e+000  2.801575e+001  3.500000e+000
      vertex -1.825000e+001  2.839843e+001  3.500000e+000
      vertex -2.017388e+001  2.801575e+001  3.500000e+000
    endloop
  endfacet
  facet normal  -0.000000e+000  0.000000e+000  1.000000e+000
    outer loop
      vertex -5.226120e+000  2.801575e+001  3.500000e+000
      vertex -2.017388e+001  2.801575e+001  3.500000e+000
      vertex -5.442893e+000  2.769132e+001  3.500000e+000
    endloop
  endfacet
  facet normal  0.000000e+000  0.000000e+000  9.999999e-001
    outer loop
      vertex -5.442893e+000  2.769132e+001  3.500000e+000
      vertex -2.017388e+001  2.801575e+001  3.500000e+000
      vertex -1.995711e+001  2.769132e+001  3.500000e+000
    endloop
  endfacet
  facet normal  -0.000000e+000  0.000000e+000  1.000000e+000
    outer loop
      vertex -5.442893e+000  2.769132e+001  3.500000e+000
      vertex -1.995711e+001  2.769132e+001  3.500000e+000
      vertex -5.767316e+000  2.747455e+001  3.500000e+000
    endloop
  endfacet
  facet normal  0.000000e+000  0.000000e+000  1.000000e+000
    outer loop
      vertex -5.767316e+000  2.747455e+001  3.500000e+000
      vertex -1.995711e+001  2.769132e+001  3.500000e+000
      vertex -1.963268e+001  2.747455e+001  3.500000e+000
    endloop
  endfacet
  facet normal  -0.000000e+000  0.000000e+000  1.000000e+000
    outer loop
      vertex -5.767316e+000  2.747455e+001  3.500000e+000
      vertex -1.963268e+001  2.747455e+001  3.500000e+000
      vertex -6.150000e+000  2.739843e+001  3.500000e+000
    endloop
  endfacet
  facet normal  0.000000e+000  0.000000e+000  1.000000e+000
    outer loop
      vertex -6.150000e+000  2.739843e+001  3.500000e+000
      vertex -1.963268e+001  2.747455e+001  3.500000e+000
      vertex -1.925000e+001  2.739843e+001  3.500000e+000
    endloop
  endfacet
  facet normal  -0.000000e+000  0.000000e+000  1.000000e+000
    outer loop
      vertex  2.017388e+001  2.801575e+001  3.500000e+000
      vertex  5.226120e+000  2.801575e+001  3.500000e+000
      vertex  1.995711e+001  2.769132e+001  3.500000e+000
    endloop
  endfacet
  facet normal  0.000000e+000  0.000000e+000  9.999999e-001
    outer loop
      vertex  1.995711e+001  2.769132e+001  3.500000e+000
      vertex  5.226120e+000  2.801575e+001  3.500000e+000
      vertex  5.442893e+000  2.769132e+001  3.500000e+000
    endloop
  endfacet
  facet normal  -0.000000e+000  0.000000e+000  1.000000e+000
    outer loop
      vertex  1.995711e+001  2.769132e+001  3.500000e+000
      vertex  5.442893e+000  2.769132e+001  3.500000e+000
      vertex  1.963268e+001  2.747455e+001  3.500000e+000
    endloop
  endfacet
  facet normal  0.000000e+000  0.000000e+000  1.000000e+000
    outer loop
      vertex  1.963268e+001  2.747455e+001  3.500000e+000
      vertex  5.442893e+000  2.769132e+001  3.500000e+000
      vertex  5.767316e+000  2.747455e+001  3.500000e+000
    endloop
  endfacet
  facet normal  -0.000000e+000  0.000000e+000  1.000000e+000
    outer loop
      vertex  1.963268e+001  2.747455e+001  3.500000e+000
      vertex  5.767316e+000  2.747455e+001  3.500000e+000
      vertex  1.925000e+001  2.739843e+001  3.500000e+000
    endloop
  endfacet
  facet normal  0.000000e+000  0.000000e+000  1.000000e+000
    outer loop
      vertex  1.925000e+001  2.739843e+001  3.500000e+000
      vertex  5.767316e+000  2.747455e+001  3.500000e+000
      vertex  6.150000e+000  2.739843e+001  3.500000e+000
    endloop
  endfacet
  facet normal -8.314710e-001  5.555683e-001  0.000000e+000
    outer loop
      vertex -6.442893e+000  2.869132e+001  1.500000e+000
      vertex -6.226120e+000  2.901575e+001  3.500000e+000
      vertex -6.226120e+000  2.901575e+001  1.500000e+000
    endloop
  endfacet
  facet normal -9.807853e-001  1.950904e-001  0.000000e+000
    outer loop
      vertex -6.226120e+000  2.901575e+001  1.500000e+000
      vertex -6.226120e+000  2.901575e+001  3.500000e+000
      vertex -6.150000e+000  2.939843e+001  3.500000e+000
    endloop
  endfacet
  facet normal -9.807853e-001  1.950904e-001  0.000000e+000
    outer loop
      vertex -6.226120e+000  2.901575e+001  1.500000e+000
      vertex -6.150000e+000  2.939843e+001  3.500000e+000
      vertex -6.150000e+000  2.939843e+001  1.500000e+000
    endloop
  endfacet
  facet normal -8.314710e-001  5.555683e-001  0.000000e+000
    outer loop
      vertex -6.226120e+000  2.901575e+001  3.500000e+000
      vertex -6.442893e+000  2.869132e+001  1.500000e+000
      vertex -6.442893e+000  2.869132e+001  3.500000e+000
    endloop
  endfacet
  facet normal -5.555691e-001  8.314704e-001  0.000000e+000
    outer loop
      vertex -6.442893e+000  2.869132e+001  3.500000e+000
      vertex -6.442893e+000  2.869132e+001  1.500000e+000
      vertex -6.767316e+000  2.847455e+001  1.500000e+000
    endloop
  endfacet
  facet normal -5.555691e-001  8.314704e-001  0.000000e+000
    outer loop
      vertex -6.442893e+000  2.869132e+001  3.500000e+000
      vertex -6.767316e+000  2.847455e+001  1.500000e+000
      vertex -6.767316e+000  2.847455e+001  3.500000e+000
    endloop
  endfacet
  facet normal -1.950899e-001  9.807853e-001  0.000000e+000
    outer loop
      vertex -6.767316e+000  2.847455e+001  3.500000e+000
      vertex -6.767316e+000  2.847455e+001  1.500000e+000
      vertex -7.150000e+000  2.839843e+001  1.500000e+000
    endloop
  endfacet
  facet normal -1.950899e-001  9.807853e-001  0.000000e+000
    outer loop
      vertex -6.767316e+000  2.847455e+001  3.500000e+000
      vertex -7.150000e+000  2.839843e+001  1.500000e+000
      vertex -7.150000e+000  2.839843e+001  3.500000e+000
    endloop
  endfacet
  facet normal  0.000000e+000  1.000000e+000  -0.000000e+000
    outer loop
      vertex  1.825000e+001  2.839843e+001  3.500000e+000
      vertex  1.825000e+001  2.839843e+001  1.500000e+000
      vertex  7.150000e+000  2.839843e+001  3.500000e+000
    endloop
  endfacet
  facet normal  0.000000e+000  1.000000e+000  0.000000e+000
    outer loop
      vertex  7.150000e+000  2.839843e+001  3.500000e+000
      vertex  1.825000e+001  2.839843e+001  1.500000e+000
      vertex  7.150000e+000  2.839843e+001  1.500000e+000
    endloop
  endfacet
  facet normal  1.000000e+000  -0.000000e+000  0.000000e+000
    outer loop
      vertex  6.150000e+000  3.659843e+001  3.500000e+000
      vertex  6.150000e+000  2.939843e+001  3.500000e+000
      vertex  6.150000e+000  3.659843e+001  1.500000e+000
    endloop
  endfacet
  facet normal  1.000000e+000  0.000000e+000  0.000000e+000
    outer loop
      vertex  6.150000e+000  3.659843e+001  1.500000e+000
      vertex  6.150000e+000  2.939843e+001  3.500000e+000
      vertex  6.150000e+000  2.939843e+001  1.500000e+000
    endloop
  endfacet
  facet normal  5.555691e-001  8.314704e-001  0.000000e+000
    outer loop
      vertex  6.442893e+000  2.869132e+001  1.500000e+000
      vertex  6.767316e+000  2.847455e+001  3.500000e+000
      vertex  6.767316e+000  2.847455e+001  1.500000e+000
    endloop
  endfacet
  facet normal  1.950899e-001  9.807853e-001  -0.000000e+000
    outer loop
      vertex  6.767316e+000  2.847455e+001  1.500000e+000
      vertex  6.767316e+000  2.847455e+001  3.500000e+000
      vertex  7.150000e+000  2.839843e+001  3.500000e+000
    endloop
  endfacet
  facet normal  1.950899e-001  9.807853e-001  0.000000e+000
    outer loop
      vertex  6.767316e+000  2.847455e+001  1.500000e+000
      vertex  7.150000e+000  2.839843e+001  3.500000e+000
      vertex  7.150000e+000  2.839843e+001  1.500000e+000
    endloop
  endfacet
  facet normal  5.555691e-001  8.314704e-001  -0.000000e+000
    outer loop
      vertex  6.767316e+000  2.847455e+001  3.500000e+000
      vertex  6.442893e+000  2.869132e+001  1.500000e+000
      vertex  6.442893e+000  2.869132e+001  3.500000e+000
    endloop
  endfacet
  facet normal  8.314710e-001  5.555683e-001  0.000000e+000
    outer loop
      vertex  6.442893e+000  2.869132e+001  3.500000e+000
      vertex  6.442893e+000  2.869132e+001  1.500000e+000
      vertex  6.226120e+000  2.901575e+001  1.500000e+000
    endloop
  endfacet
  facet normal  8.314710e-001  5.555683e-001  -0.000000e+000
    outer loop
      vertex  6.442893e+000  2.869132e+001  3.500000e+000
      vertex  6.226120e+000  2.901575e+001  1.500000e+000
      vertex  6.226120e+000  2.901575e+001  3.500000e+000
    endloop
  endfacet
  facet normal  9.807853e-001  1.950904e-001  0.000000e+000
    outer loop
      vertex  6.226120e+000  2.901575e+001  3.500000e+000
      vertex  6.226120e+000  2.901575e+001  1.500000e+000
      vertex  6.150000e+000  2.939843e+001  1.500000e+000
    endloop
  endfacet
  facet normal  9.807853e-001  1.950904e-001  -0.000000e+000
    outer loop
      vertex  6.226120e+000  2.901575e+001  3.500000e+000
      vertex  6.150000e+000  2.939843e+001  1.500000e+000
      vertex  6.150000e+000  2.939843e+001  3.500000e+000
    endloop
  endfacet
  facet normal -1.000000e+000  -0.000000e+000  0.000000e+000
    outer loop
      vertex  1.925000e+001  2.939843e+001  3.500000e+000
      vertex  1.925000e+001  6.839843e+001  3.500000e+000
      vertex  1.925000e+001  2.939843e+001  1.500000e+000
    endloop
  endfacet
  facet normal -1.000000e+000  0.000000e+000  0.000000e+000
    outer loop
      vertex  1.925000e+001  2.939843e+001  1.500000e+000
      vertex  1.925000e+001  6.839843e+001  3.500000e+000
      vertex  1.925000e+001  6.839843e+001  1.500000e+000
    endloop
  endfacet
  facet normal  0.000000e+000 -1.000000e+000  0.000000e+000
    outer loop
      vertex -1.825000e+001  6.939843e+001  3.500000e+000
      vertex -1.825000e+001  6.939843e+001  1.500000e+000
      vertex  1.825000e+001  6.939843e+001  3.500000e+000
    endloop
  endfacet
  facet normal  0.000000e+000 -1.000000e+000  -0.000000e+000
    outer loop
      vertex  1.825000e+001  6.939843e+001  3.500000e+000
      vertex -1.825000e+001  6.939843e+001  1.500000e+000
      vertex  1.825000e+001  6.939843e+001  1.500000e+000
    endloop
  endfacet
  facet normal -5.555708e-001 -8.314693e-001  -0.000000e+000
    outer loop
      vertex  1.895711e+001  6.910554e+001  1.500000e+000
      vertex  1.863268e+001  6.932231e+001  3.500000e+000
      vertex  1.863268e+001  6.932231e+001  1.500000e+000
    endloop
  endfacet
  facet normal -1.950857e-001 -9.807861e-001  0.000000e+000
    outer loop
      vertex  1.863268e+001  6.932231e+001  1.500000e+000
      vertex  1.863268e+001  6.932231e+001  3.500000e+000
      vertex  1.825000e+001  6.939843e+001  3.500000e+000
    endloop
  endfacet
  facet normal -1.950857e-001 -9.807861e-001  -0.000000e+000
    outer loop
      vertex  1.863268e+001  6.932231e+001  1.500000e+000
      vertex  1.825000e+001  6.939843e+001  3.500000e+000
      vertex  1.825000e+001  6.939843e+001  1.500000e+000
    endloop
  endfacet
  facet normal -5.555708e-001 -8.314693e-001  0.000000e+000
    outer loop
      vertex  1.863268e+001  6.932231e+001  3.500000e+000
      vertex  1.895711e+001  6.910554e+001  1.500000e+000
      vertex  1.895711e+001  6.910554e+001  3.500000e+000
    endloop
  endfacet
  facet normal -8.314715e-001 -5.555674e-001  -0.000000e+000
    outer loop
      vertex  1.895711e+001  6.910554e+001  3.500000e+000
      vertex  1.895711e+001  6.910554e+001  1.500000e+000
      vertex  1.917388e+001  6.878111e+001  1.500000e+000
    endloop
  endfacet
  facet normal -8.314715e-001 -5.555674e-001  0.000000e+000
    outer loop
      vertex  1.895711e+001  6.910554e+001  3.500000e+000
      vertex  1.917388e+001  6.878111e+001  1.500000e+000
      vertex  1.917388e+001  6.878111e+001  3.500000e+000
    endloop
  endfacet
  facet normal -9.807853e-001 -1.950904e-001  -0.000000e+000
    outer loop
      vertex  1.917388e+001  6.878111e+001  3.500000e+000
      vertex  1.917388e+001  6.878111e+001  1.500000e+000
      vertex  1.925000e+001  6.839843e+001  1.500000e+000
    endloop
  endfacet
  facet normal -9.807853e-001 -1.950904e-001  0.000000e+000
    outer loop
      vertex  1.917388e+001  6.878111e+001  3.500000e+000
      vertex  1.925000e+001  6.839843e+001  1.500000e+000
      vertex  1.925000e+001  6.839843e+001  3.500000e+000
    endloop
  endfacet
  facet normal -8.314715e-001  5.555674e-001  0.000000e+000
    outer loop
      vertex  1.895711e+001  2.869132e+001  1.500000e+000
      vertex  1.917388e+001  2.901575e+001  3.500000e+000
      vertex  1.917388e+001  2.901575e+001  1.500000e+000
    endloop
  endfacet
  facet normal -9.807853e-001  1.950904e-001  0.000000e+000
    outer loop
      vertex  1.917388e+001  2.901575e+001  1.500000e+000
      vertex  1.917388e+001  2.901575e+001  3.500000e+000
      vertex  1.925000e+001  2.939843e+001  3.500000e+000
    endloop
  endfacet
  facet normal -9.807853e-001  1.950904e-001  0.000000e+000
    outer loop
      vertex  1.917388e+001  2.901575e+001  1.500000e+000
      vertex  1.925000e+001  2.939843e+001  3.500000e+000
      vertex  1.925000e+001  2.939843e+001  1.500000e+000
    endloop
  endfacet
  facet normal -8.314715e-001  5.555674e-001  0.000000e+000
    outer loop
      vertex  1.917388e+001  2.901575e+001  3.500000e+000
      vertex  1.895711e+001  2.869132e+001  1.500000e+000
      vertex  1.895711e+001  2.869132e+001  3.500000e+000
    endloop
  endfacet
  facet normal -5.555674e-001  8.314715e-001  0.000000e+000
    outer loop
      vertex  1.895711e+001  2.869132e+001  3.500000e+000
      vertex  1.895711e+001  2.869132e+001  1.500000e+000
      vertex  1.863268e+001  2.847455e+001  1.500000e+000
    endloop
  endfacet
  facet normal -5.555674e-001  8.314715e-001  0.000000e+000
    outer loop
      vertex  1.895711e+001  2.869132e+001  3.500000e+000
      vertex  1.863268e+001  2.847455e+001  1.500000e+000
      vertex  1.863268e+001  2.847455e+001  3.500000e+000
    endloop
  endfacet
  facet normal -1.950904e-001  9.807853e-001  0.000000e+000
    outer loop
      vertex  1.863268e+001  2.847455e+001  3.500000e+000
      vertex  1.863268e+001  2.847455e+001  1.500000e+000
      vertex  1.825000e+001  2.839843e+001  1.500000e+000
    endloop
  endfacet
  facet normal -1.950904e-001  9.807853e-001  0.000000e+000
    outer loop
      vertex  1.863268e+001  2.847455e+001  3.500000e+000
      vertex  1.825000e+001  2.839843e+001  1.500000e+000
      vertex  1.825000e+001  2.839843e+001  3.500000e+000
    endloop
  endfacet
  facet normal  1.000000e+000  -0.000000e+000  0.000000e+000
    outer loop
      vertex -1.925000e+001  6.839843e+001  3.500000e+000
      vertex -1.925000e+001  2.939843e+001  3.500000e+000
      vertex -1.925000e+001  6.839843e+001  1.500000e+000
    endloop
  endfacet
  facet normal  1.000000e+000  0.000000e+000  0.000000e+000
    outer loop
      vertex -1.925000e+001  6.839843e+001  1.500000e+000
      vertex -1.925000e+001  2.939843e+001  3.500000e+000
      vertex -1.925000e+001  2.939843e+001  1.500000e+000
    endloop
  endfacet
  facet normal  5.555674e-001  8.314715e-001  0.000000e+000
    outer loop
      vertex -1.895711e+001  2.869132e+001  1.500000e+000
      vertex -1.863268e+001  2.847455e+001  3.500000e+000
      vertex -1.863268e+001  2.847455e+001  1.500000e+000
    endloop
  endfacet
  facet normal  1.950904e-001  9.807853e-001  -0.000000e+000
    outer loop
      vertex -1.863268e+001  2.847455e+001  1.500000e+000
      vertex -1.863268e+001  2.847455e+001  3.500000e+000
      vertex -1.825000e+001  2.839843e+001  3.500000e+000
    endloop
  endfacet
  facet normal  1.950904e-001  9.807853e-001  0.000000e+000
    outer loop
      vertex -1.863268e+001  2.847455e+001  1.500000e+000
      vertex -1.825000e+001  2.839843e+001  3.500000e+000
      vertex -1.825000e+001  2.839843e+001  1.500000e+000
    endloop
  endfacet
  facet normal  5.555674e-001  8.314715e-001  -0.000000e+000
    outer loop
      vertex -1.863268e+001  2.847455e+001  3.500000e+000
      vertex -1.895711e+001  2.869132e+001  1.500000e+000
      vertex -1.895711e+001  2.869132e+001  3.500000e+000
    endloop
  endfacet
  facet normal  8.314715e-001  5.555674e-001  0.000000e+000
    outer loop
      vertex -1.895711e+001  2.869132e+001  3.500000e+000
      vertex -1.895711e+001  2.869132e+001  1.500000e+000
      vertex -1.917388e+001  2.901575e+001  1.500000e+000
    endloop
  endfacet
  facet normal  8.314715e-001  5.555674e-001  -0.000000e+000
    outer loop
      vertex -1.895711e+001  2.869132e+001  3.500000e+000
      vertex -1.917388e+001  2.901575e+001  1.500000e+000
      vertex -1.917388e+001  2.901575e+001  3.500000e+000
    endloop
  endfacet
  facet normal  9.807853e-001  1.950904e-001  0.000000e+000
    outer loop
      vertex -1.917388e+001  2.901575e+001  3.500000e+000
      vertex -1.917388e+001  2.901575e+001  1.500000e+000
      vertex -1.925000e+001  2.939843e+001  1.500000e+000
    endloop
  endfacet
  facet normal  9.807853e-001  1.950904e-001  -0.000000e+000
    outer loop
      vertex -1.917388e+001  2.901575e+001  3.500000e+000
      vertex -1.925000e+001  2.939843e+001  1.500000e+000
      vertex -1.925000e+001  2.939843e+001  3.500000e+000
    endloop
  endfacet
  facet normal  8.314715e-001 -5.555674e-001  0.000000e+000
    outer loop
      vertex -1.895711e+001  6.910554e+001  1.500000e+000
      vertex -1.917388e+001  6.878111e+001  3.500000e+000
      vertex -1.917388e+001  6.878111e+001  1.500000e+000
    endloop
  endfacet
  facet normal  9.807853e-001 -1.950904e-001  0.000000e+000
    outer loop
      vertex -1.917388e+001  6.878111e+001  1.500000e+000
      vertex -1.917388e+001  6.878111e+001  3.500000e+000
      vertex -1.925000e+001  6.839843e+001  3.500000e+000
    endloop
  endfacet
  facet normal  9.807853e-001 -1.950904e-001  0.000000e+000
    outer loop
      vertex -1.917388e+001  6.878111e+001  1.500000e+000
      vertex -1.925000e+001  6.839843e+001  3.500000e+000
      vertex -1.925000e+001  6.839843e+001  1.500000e+000
    endloop
  endfacet
  facet normal  8.314715e-001 -5.555674e-001  0.000000e+000
    outer loop
      vertex -1.917388e+001  6.878111e+001  3.500000e+000
      vertex -1.895711e+001  6.910554e+001  1.500000e+000
      vertex -1.895711e+001  6.910554e+001  3.500000e+000
    endloop
  endfacet
  facet normal  5.555708e-001 -8.314693e-001  0.000000e+000
    outer loop
      vertex -1.895711e+001  6.910554e+001  3.500000e+000
      vertex -1.895711e+001  6.910554e+001  1.500000e+000
      vertex -1.863268e+001  6.932231e+001  1.500000e+000
    endloop
  endfacet
  facet normal  5.555708e-001 -8.314693e-001  0.000000e+000
    outer loop
      vertex -1.895711e+001  6.910554e+001  3.500000e+000
      vertex -1.863268e+001  6.932231e+001  1.500000e+000
      vertex -1.863268e+001  6.932231e+001  3.500000e+000
    endloop
  endfacet
  facet normal  1.950857e-001 -9.807861e-001  0.000000e+000
    outer loop
      vertex -1.863268e+001  6.932231e+001  3.500000e+000
      vertex -1.863268e+001  6.932231e+001  1.500000e+000
      vertex -1.825000e+001  6.939843e+001  1.500000e+000
    endloop
  endfacet
  facet normal  1.950857e-001 -9.807861e-001  0.000000e+000
    outer loop
      vertex -1.863268e+001  6.932231e+001  3.500000e+000
      vertex -1.825000e+001  6.939843e+001  1.500000e+000
      vertex -1.825000e+001  6.939843e+001  3.500000e+000
    endloop
  endfacet
  facet normal  0.000000e+000 -1.000000e+000  0.000000e+000
    outer loop
      vertex  6.150000e+000  2.739843e+001  3.500000e+000
      vertex  6.150000e+000  2.739843e+001  1.500000e+000
      vertex  1.925000e+001  2.739843e+001  3.500000e+000
    endloop
  endfacet
  facet normal  0.000000e+000 -1.000000e+000  -0.000000e+000
    outer loop
      vertex  1.925000e+001  2.739843e+001  3.500000e+000
      vertex  6.150000e+000  2.739843e+001  1.500000e+000
      vertex  1.925000e+001  2.739843e+001  1.500000e+000
    endloop
  endfacet
  facet normal -1.000000e+000  -0.000000e+000  0.000000e+000
    outer loop
      vertex  5.150000e+000  2.839843e+001  3.500000e+000
      vertex  5.150000e+000  3.559843e+001  3.500000e+000
      vertex  5.150000e+000  2.839843e+001  1.500000e+000
    endloop
  endfacet
  facet normal -1.000000e+000  0.000000e+000  0.000000e+000
    outer loop
      vertex  5.150000e+000  2.839843e+001  1.500000e+000
      vertex  5.150000e+000  3.559843e+001  3.500000e+000
      vertex  5.150000e+000  3.559843e+001  1.500000e+000
    endloop
  endfacet
  facet normal  -0.000000e+000  0.000000e+000  1.000000e+000
    outer loop
      vertex  5.150000e+000  2.839843e+001  1.500000e+000
      vertex -5.767316e+000  2.747455e+001  1.500000e+000
      vertex -6.150000e+000  2.739843e+001  1.500000e+000
    endloop
  endfacet
  facet normal  -0.000000e+000  0.000000e+000  1.000000e+000
    outer loop
      vertex  5.150000e+000  2.839843e+001  1.500000e+000
      vertex -5.442893e+000  2.769132e+001  1.500000e+000
      vertex -5.767316e+000  2.747455e+001  1.500000e+000
    endloop
  endfacet
  facet normal  0.000000e+000  -0.000000e+000  1.000000e+000
    outer loop
      vertex -1.925000e+001  7.039843e+001  1.500000e+000
      vertex  1.925000e+001  7.039843e+001  1.500000e+000
      vertex  2.025000e+001  7.189843e+001  1.500000e+000
    endloop
  endfacet
  facet normal  0.000000e+000  0.000000e+000  9.999999e-001
    outer loop
      vertex -1.925000e+001  7.039843e+001  1.500000e+000
      vertex  2.025000e+001  7.189843e+001  1.500000e+000
      vertex -2.025000e+001  7.189843e+001  1.500000e+000
    endloop
  endfacet
  facet normal  0.000000e+000  0.000000e+000  1.000000e+000
    outer loop
      vertex -1.925000e+001  7.039843e+001  1.500000e+000
      vertex -2.025000e+001  7.189843e+001  1.500000e+000
      vertex -2.167658e+001  7.086195e+001  1.500000e+000
    endloop
  endfacet
  facet normal  0.000000e+000  0.000000e+000  1.000000e+000
    outer loop
      vertex -1.925000e+001  7.039843e+001  1.500000e+000
      vertex -2.167658e+001  7.086195e+001  1.500000e+000
      vertex -2.175000e+001  7.039843e+001  1.500000e+000
    endloop
  endfacet
  facet normal  -0.000000e+000  0.000000e+000  1.000000e+000
    outer loop
      vertex  5.150000e+000  3.559843e+001  1.500000e+000
      vertex -5.150000e+000  3.559843e+001  1.500000e+000
      vertex -5.150000e+000  2.839843e+001  1.500000e+000
    endloop
  endfacet
  facet normal  -0.000000e+000  0.000000e+000  1.000000e+000
    outer loop
      vertex  5.150000e+000  3.559843e+001  1.500000e+000
      vertex -5.150000e+000  2.839843e+001  1.500000e+000
      vertex -5.226120e+000  2.801575e+001  1.500000e+000
    endloop
  endfacet
  facet normal  -0.000000e+000  0.000000e+000  1.000000e+000
    outer loop
      vertex  5.150000e+000  3.559843e+001  1.500000e+000
      vertex -5.226120e+000  2.801575e+001  1.500000e+000
      vertex -5.442893e+000  2.769132e+001  1.500000e+000
    endloop
  endfacet
  facet normal  0.000000e+000  0.000000e+000  1.000000e+000
    outer loop
      vertex  5.150000e+000  3.559843e+001  1.500000e+000
      vertex -5.442893e+000  2.769132e+001  1.500000e+000
      vertex  5.150000e+000  2.839843e+001  1.500000e+000
    endloop
  endfacet
  facet normal  0.000000e+000  0.000000e+000  1.000000e+000
    outer loop
      vertex  2.175000e+001  7.039843e+001  1.500000e+000
      vertex  2.167658e+001  7.086195e+001  1.500000e+000
      vertex  1.925000e+001  7.039843e+001  1.500000e+000
    endloop
  endfacet
  facet normal  -0.000000e+000  0.000000e+000  9.999999e-001
    outer loop
      vertex  2.175000e+001  7.039843e+001  1.500000e+000
      vertex  1.925000e+001  7.039843e+001  1.500000e+000
      vertex  1.963268e+001  7.032231e+001  1.500000e+000
    endloop
  endfacet
  facet normal  -0.000000e+000  0.000000e+000  1.000000e+000
    outer loop
      vertex  2.175000e+001  7.039843e+001  1.500000e+000
      vertex  1.963268e+001  7.032231e+001  1.500000e+000
      vertex  1.995711e+001  7.010554e+001  1.500000e+000
    endloop
  endfacet
  facet normal  -0.000000e+000  0.000000e+000  1.000000e+000
    outer loop
      vertex  2.175000e+001  7.039843e+001  1.500000e+000
      vertex  1.995711e+001  7.010554e+001  1.500000e+000
      vertex  2.017388e+001  6.978111e+001  1.500000e+000
    endloop
  endfacet
  facet normal  -0.000000e+000  0.000000e+000  1.000000e+000
    outer loop
      vertex  2.175000e+001  7.039843e+001  1.500000e+000
      vertex  2.017388e+001  6.978111e+001  1.500000e+000
      vertex  2.025000e+001  6.939843e+001  1.500000e+000
    endloop
  endfacet
  facet normal  -0.000000e+000  0.000000e+000  9.999999e-001
    outer loop
      vertex  2.175000e+001  7.039843e+001  1.500000e+000
      vertex  2.025000e+001  6.939843e+001  1.500000e+000
      vertex  2.025000e+001  2.839843e+001  1.500000e+000
    endloop
  endfacet
  facet normal  -0.000000e+000  0.000000e+000  1.000000e+000
    outer loop
      vertex  2.175000e+001  7.039843e+001  1.500000e+000
      vertex  2.025000e+001  2.839843e+001  1.500000e+000
      vertex  2.175000e+001  2.739843e+001  1.500000e+000
    endloop
  endfacet
  facet normal  0.000000e+000  -0.000000e+000  1.000000e+000
    outer loop
      vertex -2.175000e+001  2.739843e+001  1.500000e+000
      vertex -2.167658e+001  2.693490e+001  1.500000e+000
      vertex -1.925000e+001  2.739843e+001  1.500000e+000
    endloop
  endfacet
  facet normal  0.000000e+000  0.000000e+000  1.000000e+000
    outer loop
      vertex -2.175000e+001  2.739843e+001  1.500000e+000
      vertex -1.925000e+001  2.739843e+001  1.500000e+000
      vertex -1.963268e+001  2.747455e+001  1.500000e+000
    endloop
  endfacet
  facet normal  0.000000e+000  0.000000e+000  9.999999e-001
    outer loop
      vertex -2.175000e+001  2.739843e+001  1.500000e+000
      vertex -1.963268e+001  2.747455e+001  1.500000e+000
      vertex -1.995711e+001  2.769132e+001  1.500000e+000
    endloop
  endfacet
  facet normal  0.000000e+000  0.000000e+000  1.000000e+000
    outer loop
      vertex -2.175000e+001  2.739843e+001  1.500000e+000
      vertex -1.995711e+001  2.769132e+001  1.500000e+000
      vertex -2.017388e+001  2.801575e+001  1.500000e+000
    endloop
  endfacet
  facet normal  0.000000e+000  0.000000e+000  1.000000e+000
    outer loop
      vertex -2.175000e+001  2.739843e+001  1.500000e+000
      vertex -2.017388e+001  2.801575e+001  1.500000e+000
      vertex -2.025000e+001  2.839843e+001  1.500000e+000
    endloop
  endfacet
  facet normal  0.000000e+000  -0.000000e+000  9.999999e-001
    outer loop
      vertex -2.175000e+001  2.739843e+001  1.500000e+000
      vertex -2.025000e+001  2.839843e+001  1.500000e+000
      vertex -2.025000e+001  6.939843e+001  1.500000e+000
    endloop
  endfacet
  facet normal  0.000000e+000  0.000000e+000  1.000000e+000
    outer loop
      vertex -2.175000e+001  2.739843e+001  1.500000e+000
      vertex -2.025000e+001  6.939843e+001  1.500000e+000
      vertex -2.175000e+001  7.039843e+001  1.500000e+000
    endloop
  endfacet
  facet normal  -0.000000e+000  -0.000000e+000  1.000000e+000
    outer loop
      vertex -2.167658e+001  2.693490e+001  1.500000e+000
      vertex -2.146353e+001  2.651675e+001  1.500000e+000
      vertex -2.113168e+001  2.618490e+001  1.500000e+000
    endloop
  endfacet
  facet normal  -0.000000e+000  -0.000000e+000  1.000000e+000
    outer loop
      vertex -2.167658e+001  2.693490e+001  1.500000e+000
      vertex -2.113168e+001  2.618490e+001  1.500000e+000
      vertex -2.071353e+001  2.597185e+001  1.500000e+000
    endloop
  endfacet
  facet normal  -0.000000e+000  -0.000000e+000  1.000000e+000
    outer loop
      vertex -2.167658e+001  2.693490e+001  1.500000e+000
      vertex -2.071353e+001  2.597185e+001  1.500000e+000
      vertex -2.025000e+001  2.589843e+001  1.500000e+000
    endloop
  endfacet
  facet normal  0.000000e+000  -0.000000e+000  1.000000e+000
    outer loop
      vertex -2.167658e+001  2.693490e+001  1.500000e+000
      vertex -2.025000e+001  2.589843e+001  1.500000e+000
      vertex -6.150000e+000  2.739843e+001  1.500000e+000
    endloop
  endfacet
  facet normal  0.000000e+000  0.000000e+000  9.999999e-001
    outer loop
      vertex -2.167658e+001  2.693490e+001  1.500000e+000
      vertex -6.150000e+000  2.739843e+001  1.500000e+000
      vertex -1.925000e+001  2.739843e+001  1.500000e+000
    endloop
  endfacet
  facet normal  0.000000e+000  0.000000e+000  9.999999e-001
    outer loop
      vertex -2.025000e+001  2.589843e+001  1.500000e+000
      vertex  2.025000e+001  2.589843e+001  1.500000e+000
      vertex  1.925000e+001  2.739843e+001  1.500000e+000
    endloop
  endfacet
  facet normal  0.000000e+000  0.000000e+000  1.000000e+000
    outer loop
      vertex -2.025000e+001  2.589843e+001  1.500000e+000
      vertex  1.925000e+001  2.739843e+001  1.500000e+000
      vertex  6.150000e+000  2.739843e+001  1.500000e+000
    endloop
  endfacet
  facet normal  0.000000e+000  0.000000e+000  1.000000e+000
    outer loop
      vertex -2.025000e+001  2.589843e+001  1.500000e+000
      vertex  6.150000e+000  2.739843e+001  1.500000e+000
      vertex  5.767316e+000  2.747455e+001  1.500000e+000
    endloop
  endfacet
  facet normal  0.000000e+000  0.000000e+000  9.999999e-001
    outer loop
      vertex -2.025000e+001  2.589843e+001  1.500000e+000
      vertex  5.767316e+000  2.747455e+001  1.500000e+000
      vertex  5.442893e+000  2.769132e+001  1.500000e+000
    endloop
  endfacet
  facet normal  0.000000e+000  0.000000e+000  1.000000e+000
    outer loop
      vertex -2.025000e+001  2.589843e+001  1.500000e+000
      vertex  5.442893e+000  2.769132e+001  1.500000e+000
      vertex  5.226120e+000  2.801575e+001  1.500000e+000
    endloop
  endfacet
  facet normal  0.000000e+000  0.000000e+000  1.000000e+000
    outer loop
      vertex -2.025000e+001  2.589843e+001  1.500000e+000
      vertex  5.226120e+000  2.801575e+001  1.500000e+000
      vertex  5.150000e+000  2.839843e+001  1.500000e+000
    endloop
  endfacet
  facet normal  0.000000e+000  0.000000e+000  9.999999e-001
    outer loop
      vertex -2.025000e+001  2.589843e+001  1.500000e+000
      vertex  5.150000e+000  2.839843e+001  1.500000e+000
      vertex -6.150000e+000  2.739843e+001  1.500000e+000
    endloop
  endfacet
  facet normal  0.000000e+000  -0.000000e+000  1.000000e+000
    outer loop
      vertex  1.925000e+001  2.739843e+001  1.500000e+000
      vertex  2.025000e+001  2.589843e+001  1.500000e+000
      vertex  2.071353e+001  2.597185e+001  1.500000e+000
    endloop
  endfacet
  facet normal  0.000000e+000  -0.000000e+000  1.000000e+000
    outer loop
      vertex  1.925000e+001  2.739843e+001  1.500000e+000
      vertex  2.071353e+001  2.597185e+001  1.500000e+000
      vertex  2.113168e+001  2.618490e+001  1.500000e+000
    endloop
  endfacet
  facet normal  0.000000e+000  -0.000000e+000  1.000000e+000
    outer loop
      vertex  1.925000e+001  2.739843e+001  1.500000e+000
      vertex  2.113168e+001  2.618490e+001  1.500000e+000
      vertex  2.146353e+001  2.651675e+001  1.500000e+000
    endloop
  endfacet
  facet normal  0.000000e+000  -0.000000e+000  1.000000e+000
    outer loop
      vertex  1.925000e+001  2.739843e+001  1.500000e+000
      vertex  2.146353e+001  2.651675e+001  1.500000e+000
      vertex  2.167658e+001  2.693490e+001  1.500000e+000
    endloop
  endfacet
  facet normal  0.000000e+000  -0.000000e+000  1.000000e+000
    outer loop
      vertex  1.925000e+001  2.739843e+001  1.500000e+000
      vertex  2.167658e+001  2.693490e+001  1.500000e+000
      vertex  2.175000e+001  2.739843e+001  1.500000e+000
    endloop
  endfacet
  facet normal  0.000000e+000  0.000000e+000  1.000000e+000
    outer loop
      vertex -2.167658e+001  7.086195e+001  1.500000e+000
      vertex -2.025000e+001  7.189843e+001  1.500000e+000
      vertex -2.071353e+001  7.182501e+001  1.500000e+000
    endloop
  endfacet
  facet normal  0.000000e+000  0.000000e+000  1.000000e+000
    outer loop
      vertex -2.167658e+001  7.086195e+001  1.500000e+000
      vertex -2.071353e+001  7.182501e+001  1.500000e+000
      vertex -2.113168e+001  7.161195e+001  1.500000e+000
    endloop
  endfacet
  facet normal  0.000000e+000  0.000000e+000  1.000000e+000
    outer loop
      vertex -2.167658e+001  7.086195e+001  1.500000e+000
      vertex -2.113168e+001  7.161195e+001  1.500000e+000
      vertex -2.146353e+001  7.128011e+001  1.500000e+000
    endloop
  endfacet
  facet normal  0.000000e+000  0.000000e+000  1.000000e+000
    outer loop
      vertex  1.925000e+001  7.039843e+001  1.500000e+000
      vertex  2.167658e+001  7.086195e+001  1.500000e+000
      vertex  2.146353e+001  7.128011e+001  1.500000e+000
    endloop
  endfacet
  facet normal  0.000000e+000  0.000000e+000  1.000000e+000
    outer loop
      vertex  1.925000e+001  7.039843e+001  1.500000e+000
      vertex  2.146353e+001  7.128011e+001  1.500000e+000
      vertex  2.113168e+001  7.161195e+001  1.500000e+000
    endloop
  endfacet
  facet normal  0.000000e+000  0.000000e+000  1.000000e+000
    outer loop
      vertex  1.925000e+001  7.039843e+001  1.500000e+000
      vertex  2.113168e+001  7.161195e+001  1.500000e+000
      vertex  2.071353e+001  7.182501e+001  1.500000e+000
    endloop
  endfacet
  facet normal  0.000000e+000  0.000000e+000  9.999999e-001
    outer loop
      vertex  1.925000e+001  7.039843e+001  1.500000e+000
      vertex  2.071353e+001  7.182501e+001  1.500000e+000
      vertex  2.025000e+001  7.189843e+001  1.500000e+000
    endloop
  endfacet
  facet normal  0.000000e+000  -0.000000e+000  1.000000e+000
    outer loop
      vertex -2.175000e+001  7.039843e+001  1.500000e+000
      vertex -2.025000e+001  6.939843e+001  1.500000e+000
      vertex -2.017388e+001  6.978111e+001  1.500000e+000
    endloop
  endfacet
  facet normal  0.000000e+000  -0.000000e+000  1.000000e+000
    outer loop
      vertex -2.175000e+001  7.039843e+001  1.500000e+000
      vertex -2.017388e+001  6.978111e+001  1.500000e+000
      vertex -1.995711e+001  7.010554e+001  1.500000e+000
    endloop
  endfacet
  facet normal  0.000000e+000  -0.000000e+000  1.000000e+000
    outer loop
      vertex -2.175000e+001  7.039843e+001  1.500000e+000
      vertex -1.995711e+001  7.010554e+001  1.500000e+000
      vertex -1.963268e+001  7.032231e+001  1.500000e+000
    endloop
  endfacet
  facet normal  0.000000e+000  -0.000000e+000  9.999999e-001
    outer loop
      vertex -2.175000e+001  7.039843e+001  1.500000e+000
      vertex -1.963268e+001  7.032231e+001  1.500000e+000
      vertex -1.925000e+001  7.039843e+001  1.500000e+000
    endloop
  endfacet
  facet normal  0.000000e+000  0.000000e+000  1.000000e+000
    outer loop
      vertex  2.175000e+001  2.739843e+001  1.500000e+000
      vertex  2.025000e+001  2.839843e+001  1.500000e+000
      vertex  2.017388e+001  2.801575e+001  1.500000e+000
    endloop
  endfacet
  facet normal  0.000000e+000  0.000000e+000  1.000000e+000
    outer loop
      vertex  2.175000e+001  2.739843e+001  1.500000e+000
      vertex  2.017388e+001  2.801575e+001  1.500000e+000
      vertex  1.995711e+001  2.769132e+001  1.500000e+000
    endloop
  endfacet
  facet normal  0.000000e+000  0.000000e+000  9.999999e-001
    outer loop
      vertex  2.175000e+001  2.739843e+001  1.500000e+000
      vertex  1.995711e+001  2.769132e+001  1.500000e+000
      vertex  1.963268e+001  2.747455e+001  1.500000e+000
    endloop
  endfacet
  facet normal  0.000000e+000  0.000000e+000  1.000000e+000
    outer loop
      vertex  2.175000e+001  2.739843e+001  1.500000e+000
      vertex  1.963268e+001  2.747455e+001  1.500000e+000
      vertex  1.925000e+001  2.739843e+001  1.500000e+000
    endloop
  endfacet
  facet normal -1.950899e-001 -9.807853e-001  -0.000000e+000
    outer loop
      vertex  6.150000e+000  2.739843e+001  1.500000e+000
      vertex  6.150000e+000  2.739843e+001  3.500000e+000
      vertex  5.767316e+000  2.747455e+001  1.500000e+000
    endloop
  endfacet
  facet normal -1.950899e-001 -9.807853e-001  0.000000e+000
    outer loop
      vertex  5.767316e+000  2.747455e+001  1.500000e+000
      vertex  6.150000e+000  2.739843e+001  3.500000e+000
      vertex  5.767316e+000  2.747455e+001  3.500000e+000
    endloop
  endfacet
  facet normal -5.555691e-001 -8.314704e-001  -0.000000e+000
    outer loop
      vertex  5.767316e+000  2.747455e+001  1.500000e+000
      vertex  5.767316e+000  2.747455e+001  3.500000e+000
      vertex  5.442893e+000  2.769132e+001  1.500000e+000
    endloop
  endfacet
  facet normal -5.555691e-001 -8.314704e-001  0.000000e+000
    outer loop
      vertex  5.442893e+000  2.769132e+001  1.500000e+000
      vertex  5.767316e+000  2.747455e+001  3.500000e+000
      vertex  5.442893e+000  2.769132e+001  3.500000e+000
    endloop
  endfacet
  facet normal -8.314710e-001 -5.555683e-001  -0.000000e+000
    outer loop
      vertex  5.442893e+000  2.769132e+001  1.500000e+000
      vertex  5.442893e+000  2.769132e+001  3.500000e+000
      vertex  5.226120e+000  2.801575e+001  1.500000e+000
    endloop
  endfacet
  facet normal -8.314710e-001 -5.555683e-001  0.000000e+000
    outer loop
      vertex  5.226120e+000  2.801575e+001  1.500000e+000
      vertex  5.442893e+000  2.769132e+001  3.500000e+000
      vertex  5.226120e+000  2.801575e+001  3.500000e+000
    endloop
  endfacet
  facet normal -9.807853e-001 -1.950904e-001  -0.000000e+000
    outer loop
      vertex  5.226120e+000  2.801575e+001  1.500000e+000
      vertex  5.226120e+000  2.801575e+001  3.500000e+000
      vertex  5.150000e+000  2.839843e+001  1.500000e+000
    endloop
  endfacet
  facet normal -9.807853e-001 -1.950904e-001  0.000000e+000
    outer loop
      vertex  5.150000e+000  2.839843e+001  1.500000e+000
      vertex  5.226120e+000  2.801575e+001  3.500000e+000
      vertex  5.150000e+000  2.839843e+001  3.500000e+000
    endloop
  endfacet
  facet normal  0.000000e+000 -1.000000e+000  0.000000e+000
    outer loop
      vertex -1.925000e+001  2.739843e+001  3.500000e+000
      vertex -1.925000e+001  2.739843e+001  1.500000e+000
      vertex -6.150000e+000  2.739843e+001  3.500000e+000
    endloop
  endfacet
  facet normal  0.000000e+000 -1.000000e+000  -0.000000e+000
    outer loop
      vertex -6.150000e+000  2.739843e+001  3.500000e+000
      vertex -1.925000e+001  2.739843e+001  1.500000e+000
      vertex -6.150000e+000  2.739843e+001  1.500000e+000
    endloop
  endfacet
  facet normal  1.000000e+000  -0.000000e+000  0.000000e+000
    outer loop
      vertex -5.150000e+000  3.559843e+001  3.500000e+000
      vertex -5.150000e+000  2.839843e+001  3.500000e+000
      vertex -5.150000e+000  3.559843e+001  1.500000e+000
    endloop
  endfacet
  facet normal  1.000000e+000  0.000000e+000  0.000000e+000
    outer loop
      vertex -5.150000e+000  3.559843e+001  1.500000e+000
      vertex -5.150000e+000  2.839843e+001  3.500000e+000
      vertex -5.150000e+000  2.839843e+001  1.500000e+000
    endloop
  endfacet
  facet normal  9.807853e-001 -1.950904e-001  0.000000e+000
    outer loop
      vertex -5.150000e+000  2.839843e+001  1.500000e+000
      vertex -5.150000e+000  2.839843e+001  3.500000e+000
      vertex -5.226120e+000  2.801575e+001  1.500000e+000
    endloop
  endfacet
  facet normal  9.807853e-001 -1.950904e-001  0.000000e+000
    outer loop
      vertex -5.226120e+000  2.801575e+001  1.500000e+000
      vertex -5.150000e+000  2.839843e+001  3.500000e+000
      vertex -5.226120e+000  2.801575e+001  3.500000e+000
    endloop
  endfacet
  facet normal  8.314710e-001 -5.555683e-001  0.000000e+000
    outer loop
      vertex -5.226120e+000  2.801575e+001  1.500000e+000
      vertex -5.226120e+000  2.801575e+001  3.500000e+000
      vertex -5.442893e+000  2.769132e+001  1.500000e+000
    endloop
  endfacet
  facet normal  8.314710e-001 -5.555683e-001  0.000000e+000
    outer loop
      vertex -5.442893e+000  2.769132e+001  1.500000e+000
      vertex -5.226120e+000  2.801575e+001  3.500000e+000
      vertex -5.442893e+000  2.769132e+001  3.500000e+000
    endloop
  endfacet
  facet normal  5.555691e-001 -8.314704e-001  0.000000e+000
    outer loop
      vertex -5.442893e+000  2.769132e+001  1.500000e+000
      vertex -5.442893e+000  2.769132e+001  3.500000e+000
      vertex -5.767316e+000  2.747455e+001  1.500000e+000
    endloop
  endfacet
  facet normal  5.555691e-001 -8.314704e-001  0.000000e+000
    outer loop
      vertex -5.767316e+000  2.747455e+001  1.500000e+000
      vertex -5.442893e+000  2.769132e+001  3.500000e+000
      vertex -5.767316e+000  2.747455e+001  3.500000e+000
    endloop
  endfacet
  facet normal  1.950899e-001 -9.807853e-001  0.000000e+000
    outer loop
      vertex -5.767316e+000  2.747455e+001  1.500000e+000
      vertex -5.767316e+000  2.747455e+001  3.500000e+000
      vertex -6.150000e+000  2.739843e+001  1.500000e+000
    endloop
  endfacet
  facet normal  1.950899e-001 -9.807853e-001  0.000000e+000
    outer loop
      vertex -6.150000e+000  2.739843e+001  1.500000e+000
      vertex -5.767316e+000  2.747455e+001  3.500000e+000
      vertex -6.150000e+000  2.739843e+001  3.500000e+000
    endloop
  endfacet
  facet normal  0.000000e+000  1.000000e+000  -0.000000e+000
    outer loop
      vertex  1.925000e+001  7.039843e+001  3.500000e+000
      vertex  1.925000e+001  7.039843e+001  1.500000e+000
      vertex -1.925000e+001  7.039843e+001  3.500000e+000
    endloop
  endfacet
  facet normal  0.000000e+000  1.000000e+000  0.000000e+000
    outer loop
      vertex -1.925000e+001  7.039843e+001  3.500000e+000
      vertex  1.925000e+001  7.039843e+001  1.500000e+000
      vertex -1.925000e+001  7.039843e+001  1.500000e+000
    endloop
  endfacet
  facet normal -9.999999e-001  0.000000e+000  0.000000e+000
    outer loop
      vertex -2.025000e+001  6.939843e+001  3.500000e+000
      vertex -2.025000e+001  6.939843e+001  1.500000e+000
      vertex -2.025000e+001  2.839843e+001  3.500000e+000
    endloop
  endfacet
  facet normal -9.999999e-001  0.000000e+000  0.000000e+000
    outer loop
      vertex -2.025000e+001  2.839843e+001  3.500000e+000
      vertex -2.025000e+001  6.939843e+001  1.500000e+000
      vertex -2.025000e+001  2.839843e+001  1.500000e+000
    endloop
  endfacet
  facet normal -9.807853e-001  1.950904e-001  0.000000e+000
    outer loop
      vertex -2.025000e+001  6.939843e+001  1.500000e+000
      vertex -2.025000e+001  6.939843e+001  3.500000e+000
      vertex -2.017388e+001  6.978111e+001  1.500000e+000
    endloop
  endfacet
  facet normal -9.807853e-001  1.950904e-001  0.000000e+000
    outer loop
      vertex -2.017388e+001  6.978111e+001  1.500000e+000
      vertex -2.025000e+001  6.939843e+001  3.500000e+000
      vertex -2.017388e+001  6.978111e+001  3.500000e+000
    endloop
  endfacet
  facet normal -8.314715e-001  5.555674e-001  0.000000e+000
    outer loop
      vertex -2.017388e+001  6.978111e+001  1.500000e+000
      vertex -2.017388e+001  6.978111e+001  3.500000e+000
      vertex -1.995711e+001  7.010554e+001  1.500000e+000
    endloop
  endfacet
  facet normal -8.314715e-001  5.555674e-001  0.000000e+000
    outer loop
      vertex -1.995711e+001  7.010554e+001  1.500000e+000
      vertex -2.017388e+001  6.978111e+001  3.500000e+000
      vertex -1.995711e+001  7.010554e+001  3.500000e+000
    endloop
  endfacet
  facet normal -5.555708e-001  8.314693e-001  0.000000e+000
    outer loop
      vertex -1.995711e+001  7.010554e+001  1.500000e+000
      vertex -1.995711e+001  7.010554e+001  3.500000e+000
      vertex -1.963268e+001  7.032231e+001  1.500000e+000
    endloop
  endfacet
  facet normal -5.555708e-001  8.314693e-001  0.000000e+000
    outer loop
      vertex -1.963268e+001  7.032231e+001  1.500000e+000
      vertex -1.995711e+001  7.010554e+001  3.500000e+000
      vertex -1.963268e+001  7.032231e+001  3.500000e+000
    endloop
  endfacet
  facet normal -1.950857e-001  9.807861e-001  0.000000e+000
    outer loop
      vertex -1.963268e+001  7.032231e+001  1.500000e+000
      vertex -1.963268e+001  7.032231e+001  3.500000e+000
      vertex -1.925000e+001  7.039843e+001  1.500000e+000
    endloop
  endfacet
  facet normal -1.950857e-001  9.807861e-001  0.000000e+000
    outer loop
      vertex -1.925000e+001  7.039843e+001  1.500000e+000
      vertex -1.963268e+001  7.032231e+001  3.500000e+000
      vertex -1.925000e+001  7.039843e+001  3.500000e+000
    endloop
  endfacet
  facet normal  9.999999e-001  0.000000e+000  0.000000e+000
    outer loop
      vertex  2.025000e+001  2.839843e+001  3.500000e+000
      vertex  2.025000e+001  2.839843e+001  1.500000e+000
      vertex  2.025000e+001  6.939843e+001  3.500000e+000
    endloop
  endfacet
  facet normal  9.999999e-001  0.000000e+000  0.000000e+000
    outer loop
      vertex  2.025000e+001  6.939843e+001  3.500000e+000
      vertex  2.025000e+001  2.839843e+001  1.500000e+000
      vertex  2.025000e+001  6.939843e+001  1.500000e+000
    endloop
  endfacet
  facet normal  1.950857e-001  9.807861e-001  0.000000e+000
    outer loop
      vertex  1.925000e+001  7.039843e+001  1.500000e+000
      vertex  1.925000e+001  7.039843e+001  3.500000e+000
      vertex  1.963268e+001  7.032231e+001  1.500000e+000
    endloop
  endfacet
  facet normal  1.950857e-001  9.807861e-001  -0.000000e+000
    outer loop
      vertex  1.963268e+001  7.032231e+001  1.500000e+000
      vertex  1.925000e+001  7.039843e+001  3.500000e+000
      vertex  1.963268e+001  7.032231e+001  3.500000e+000
    endloop
  endfacet
  facet normal  5.555708e-001  8.314693e-001  0.000000e+000
    outer loop
      vertex  1.963268e+001  7.032231e+001  1.500000e+000
      vertex  1.963268e+001  7.032231e+001  3.500000e+000
      vertex  1.995711e+001  7.010554e+001  1.500000e+000
    endloop
  endfacet
  facet normal  5.555708e-001  8.314693e-001  -0.000000e+000
    outer loop
      vertex  1.995711e+001  7.010554e+001  1.500000e+000
      vertex  1.963268e+001  7.032231e+001  3.500000e+000
      vertex  1.995711e+001  7.010554e+001  3.500000e+000
    endloop
  endfacet
  facet normal  8.314715e-001  5.555674e-001  0.000000e+000
    outer loop
      vertex  1.995711e+001  7.010554e+001  1.500000e+000
      vertex  1.995711e+001  7.010554e+001  3.500000e+000
      vertex  2.017388e+001  6.978111e+001  1.500000e+000
    endloop
  endfacet
  facet normal  8.314715e-001  5.555674e-001  -0.000000e+000
    outer loop
      vertex  2.017388e+001  6.978111e+001  1.500000e+000
      vertex  1.995711e+001  7.010554e+001  3.500000e+000
      vertex  2.017388e+001  6.978111e+001  3.500000e+000
    endloop
  endfacet
  facet normal  9.807853e-001  1.950904e-001  0.000000e+000
    outer loop
      vertex  2.017388e+001  6.978111e+001  1.500000e+000
      vertex  2.017388e+001  6.978111e+001  3.500000e+000
      vertex  2.025000e+001  6.939843e+001  1.500000e+000
    endloop
  endfacet
  facet normal  9.807853e-001  1.950904e-001  -0.000000e+000
    outer loop
      vertex  2.025000e+001  6.939843e+001  1.500000e+000
      vertex  2.017388e+001  6.978111e+001  3.500000e+000
      vertex  2.025000e+001  6.939843e+001  3.500000e+000
    endloop
  endfacet
  facet normal  9.807853e-001 -1.950904e-001  0.000000e+000
    outer loop
      vertex  2.025000e+001  2.839843e+001  1.500000e+000
      vertex  2.025000e+001  2.839843e+001  3.500000e+000
      vertex  2.017388e+001  2.801575e+001  1.500000e+000
    endloop
  endfacet
  facet normal  9.807853e-001 -1.950904e-001  0.000000e+000
    outer loop
      vertex  2.017388e+001  2.801575e+001  1.500000e+000
      vertex  2.025000e+001  2.839843e+001  3.500000e+000
      vertex  2.017388e+001  2.801575e+001  3.500000e+000
    endloop
  endfacet
  facet normal  8.314715e-001 -5.555674e-001  0.000000e+000
    outer loop
      vertex  2.017388e+001  2.801575e+001  1.500000e+000
      vertex  2.017388e+001  2.801575e+001  3.500000e+000
      vertex  1.995711e+001  2.769132e+001  1.500000e+000
    endloop
  endfacet
  facet normal  8.314715e-001 -5.555674e-001  0.000000e+000
    outer loop
      vertex  1.995711e+001  2.769132e+001  1.500000e+000
      vertex  2.017388e+001  2.801575e+001  3.500000e+000
      vertex  1.995711e+001  2.769132e+001  3.500000e+000
    endloop
  endfacet
  facet normal  5.555674e-001 -8.314715e-001  0.000000e+000
    outer loop
      vertex  1.995711e+001  2.769132e+001  1.500000e+000
      vertex  1.995711e+001  2.769132e+001  3.500000e+000
      vertex  1.963268e+001  2.747455e+001  1.500000e+000
    endloop
  endfacet
  facet normal  5.555674e-001 -8.314715e-001  0.000000e+000
    outer loop
      vertex  1.963268e+001  2.747455e+001  1.500000e+000
      vertex  1.995711e+001  2.769132e+001  3.500000e+000
      vertex  1.963268e+001  2.747455e+001  3.500000e+000
    endloop
  endfacet
  facet normal  1.950904e-001 -9.807853e-001  0.000000e+000
    outer loop
      vertex  1.963268e+001  2.747455e+001  1.500000e+000
      vertex  1.963268e+001  2.747455e+001  3.500000e+000
      vertex  1.925000e+001  2.739843e+001  1.500000e+000
    endloop
  endfacet
  facet normal  1.950904e-001 -9.807853e-001  0.000000e+000
    outer loop
      vertex  1.925000e+001  2.739843e+001  1.500000e+000
      vertex  1.963268e+001  2.747455e+001  3.500000e+000
      vertex  1.925000e+001  2.739843e+001  3.500000e+000
    endloop
  endfacet
  facet normal -1.950904e-001 -9.807853e-001  -0.000000e+000
    outer loop
      vertex -1.925000e+001  2.739843e+001  1.500000e+000
      vertex -1.925000e+001  2.739843e+001  3.500000e+000
      vertex -1.963268e+001  2.747455e+001  1.500000e+000
    endloop
  endfacet
  facet normal -1.950904e-001 -9.807853e-001  0.000000e+000
    outer loop
      vertex -1.963268e+001  2.747455e+001  1.500000e+000
      vertex -1.925000e+001  2.739843e+001  3.500000e+000
      vertex -1.963268e+001  2.747455e+001  3.500000e+000
    endloop
  endfacet
  facet normal -5.555674e-001 -8.314715e-001  -0.000000e+000
    outer loop
      vertex -1.963268e+001  2.747455e+001  1.500000e+000
      vertex -1.963268e+001  2.747455e+001  3.500000e+000
      vertex -1.995711e+001  2.769132e+001  1.500000e+000
    endloop
  endfacet
  facet normal -5.555674e-001 -8.314715e-001  0.000000e+000
    outer loop
      vertex -1.995711e+001  2.769132e+001  1.500000e+000
      vertex -1.963268e+001  2.747455e+001  3.500000e+000
      vertex -1.995711e+001  2.769132e+001  3.500000e+000
    endloop
  endfacet
  facet normal -8.314715e-001 -5.555674e-001  -0.000000e+000
    outer loop
      vertex -1.995711e+001  2.769132e+001  1.500000e+000
      vertex -1.995711e+001  2.769132e+001  3.500000e+000
      vertex -2.017388e+001  2.801575e+001  1.500000e+000
    endloop
  endfacet
  facet normal -8.314715e-001 -5.555674e-001  0.000000e+000
    outer loop
      vertex -2.017388e+001  2.801575e+001  1.500000e+000
      vertex -1.995711e+001  2.769132e+001  3.500000e+000
      vertex -2.017388e+001  2.801575e+001  3.500000e+000
    endloop
  endfacet
  facet normal -9.807853e-001 -1.950904e-001  -0.000000e+000
    outer loop
      vertex -2.017388e+001  2.801575e+001  1.500000e+000
      vertex -2.017388e+001  2.801575e+001  3.500000e+000
      vertex -2.025000e+001  2.839843e+001  1.500000e+000
    endloop
  endfacet
  facet normal -9.807853e-001 -1.950904e-001  0.000000e+000
    outer loop
      vertex -2.025000e+001  2.839843e+001  1.500000e+000
      vertex -2.017388e+001  2.801575e+001  3.500000e+000
      vertex -2.025000e+001  2.839843e+001  3.500000e+000
    endloop
  endfacet
  facet normal  0.000000e+000  0.000000e+000 -1.000000e+000
    outer loop
      vertex  2.175000e+001  7.039843e+001  0.000000e+000
      vertex -2.167658e+001  7.086195e+001  0.000000e+000
      vertex  2.167658e+001  7.086195e+001  0.000000e+000
    endloop
  endfacet
  facet normal  0.000000e+000  0.000000e+000 -1.000000e+000
    outer loop
      vertex  2.167658e+001  7.086195e+001  0.000000e+000
      vertex -2.167658e+001  7.086195e+001  0.000000e+000
      vertex -2.146353e+001  7.128011e+001  0.000000e+000
    endloop
  endfacet
  facet normal  0.000000e+000  0.000000e+000 -1.000000e+000
    outer loop
      vertex  2.167658e+001  7.086195e+001  0.000000e+000
      vertex -2.146353e+001  7.128011e+001  0.000000e+000
      vertex  2.146353e+001  7.128011e+001  0.000000e+000
    endloop
  endfacet
  facet normal  0.000000e+000  0.000000e+000 -1.000000e+000
    outer loop
      vertex  2.146353e+001  7.128011e+001  0.000000e+000
      vertex -2.146353e+001  7.128011e+001  0.000000e+000
      vertex -2.113168e+001  7.161195e+001  0.000000e+000
    endloop
  endfacet
  facet normal  0.000000e+000  0.000000e+000 -1.000000e+000
    outer loop
      vertex  2.146353e+001  7.128011e+001  0.000000e+000
      vertex -2.113168e+001  7.161195e+001  0.000000e+000
      vertex  2.113168e+001  7.161195e+001  0.000000e+000
    endloop
  endfacet
  facet normal  0.000000e+000  0.000000e+000 -1.000000e+000
    outer loop
      vertex  2.113168e+001  7.161195e+001  0.000000e+000
      vertex -2.113168e+001  7.161195e+001  0.000000e+000
      vertex -2.071353e+001  7.182501e+001  0.000000e+000
    endloop
  endfacet
  facet normal  0.000000e+000  0.000000e+000 -1.000000e+000
    outer loop
      vertex  2.113168e+001  7.161195e+001  0.000000e+000
      vertex -2.071353e+001  7.182501e+001  0.000000e+000
      vertex  2.071353e+001  7.182501e+001  0.000000e+000
    endloop
  endfacet
  facet normal  0.000000e+000  0.000000e+000 -9.999999e-001
    outer loop
      vertex  2.071353e+001  7.182501e+001  0.000000e+000
      vertex -2.071353e+001  7.182501e+001  0.000000e+000
      vertex -2.025000e+001  7.189843e+001  0.000000e+000
    endloop
  endfacet
  facet normal  0.000000e+000  0.000000e+000 -9.999999e-001
    outer loop
      vertex  2.071353e+001  7.182501e+001  0.000000e+000
      vertex -2.025000e+001  7.189843e+001  0.000000e+000
      vertex  2.025000e+001  7.189843e+001  0.000000e+000
    endloop
  endfacet
  facet normal  0.000000e+000  0.000000e+000 -9.999999e-001
    outer loop
      vertex -2.167658e+001  7.086195e+001  0.000000e+000
      vertex  2.175000e+001  7.039843e+001  0.000000e+000
      vertex -2.175000e+001  7.039843e+001  0.000000e+000
    endloop
  endfacet
  facet normal  0.000000e+000  0.000000e+000 -1.000000e+000
    outer loop
      vertex -2.175000e+001  7.039843e+001  0.000000e+000
      vertex  2.175000e+001  7.039843e+001  0.000000e+000
      vertex  2.175000e+001  2.739843e+001  0.000000e+000
    endloop
  endfacet
  facet normal  0.000000e+000  0.000000e+000 -1.000000e+000
    outer loop
      vertex -2.175000e+001  7.039843e+001  0.000000e+000
      vertex  2.175000e+001  2.739843e+001  0.000000e+000
      vertex -2.175000e+001  2.739843e+001  0.000000e+000
    endloop
  endfacet
  facet normal  0.000000e+000  0.000000e+000 -1.000000e+000
    outer loop
      vertex -2.175000e+001  2.739843e+001  0.000000e+000
      vertex  2.175000e+001  2.739843e+001  0.000000e+000
      vertex  2.167658e+001  2.693490e+001  0.000000e+000
    endloop
  endfacet
  facet normal  0.000000e+000  0.000000e+000 -1.000000e+000
    outer loop
      vertex -2.175000e+001  2.739843e+001  0.000000e+000
      vertex  2.167658e+001  2.693490e+001  0.000000e+000
      vertex -2.167658e+001  2.693490e+001  0.000000e+000
    endloop
  endfacet
  facet normal  0.000000e+000  0.000000e+000 -1.000000e+000
    outer loop
      vertex -2.167658e+001  2.693490e+001  0.000000e+000
      vertex  2.167658e+001  2.693490e+001  0.000000e+000
      vertex  2.146353e+001  2.651675e+001  0.000000e+000
    endloop
  endfacet
  facet normal  0.000000e+000  0.000000e+000 -1.000000e+000
    outer loop
      vertex -2.167658e+001  2.693490e+001  0.000000e+000
      vertex  2.146353e+001  2.651675e+001  0.000000e+000
      vertex -2.146353e+001  2.651675e+001  0.000000e+000
    endloop
  endfacet
  facet normal  0.000000e+000  0.000000e+000 -1.000000e+000
    outer loop
      vertex -2.146353e+001  2.651675e+001  0.000000e+000
      vertex  2.146353e+001  2.651675e+001  0.000000e+000
      vertex  2.113168e+001  2.618490e+001  0.000000e+000
    endloop
  endfacet
  facet normal  0.000000e+000  0.000000e+000 -1.000000e+000
    outer loop
      vertex -2.146353e+001  2.651675e+001  0.000000e+000
      vertex  2.113168e+001  2.618490e+001  0.000000e+000
      vertex -2.113168e+001  2.618490e+001  0.000000e+000
    endloop
  endfacet
  facet normal  0.000000e+000  0.000000e+000 -1.000000e+000
    outer loop
      vertex -2.113168e+001  2.618490e+001  0.000000e+000
      vertex  2.113168e+001  2.618490e+001  0.000000e+000
      vertex  2.071353e+001  2.597185e+001  0.000000e+000
    endloop
  endfacet
  facet normal  0.000000e+000  0.000000e+000 -1.000000e+000
    outer loop
      vertex -2.113168e+001  2.618490e+001  0.000000e+000
      vertex  2.071353e+001  2.597185e+001  0.000000e+000
      vertex -2.071353e+001  2.597185e+001  0.000000e+000
    endloop
  endfacet
  facet normal  0.000000e+000  0.000000e+000 -1.000000e+000
    outer loop
      vertex -2.071353e+001  2.597185e+001  0.000000e+000
      vertex  2.071353e+001  2.597185e+001  0.000000e+000
      vertex  2.025000e+001  2.589843e+001  0.000000e+000
    endloop
  endfacet
  facet normal  0.000000e+000  0.000000e+000 -1.000000e+000
    outer loop
      vertex -2.071353e+001  2.597185e+001  0.000000e+000
      vertex  2.025000e+001  2.589843e+001  0.000000e+000
      vertex -2.025000e+001  2.589843e+001  0.000000e+000
    endloop
  endfacet
  facet normal  1.000000e+000  0.000000e+000  0.000000e+000
    outer loop
      vertex  2.175000e+001  2.739843e+001  1.500000e+000
      vertex  2.175000e+001  2.739843e+001  0.000000e+000
      vertex  2.175000e+001  7.039843e+001  1.500000e+000
    endloop
  endfacet
  facet normal  1.000000e+000  0.000000e+000  0.000000e+000
    outer loop
      vertex  2.175000e+001  7.039843e+001  1.500000e+000
      vertex  2.175000e+001  2.739843e+001  0.000000e+000
      vertex  2.175000e+001  7.039843e+001  0.000000e+000
    endloop
  endfacet
  facet normal  0.000000e+000  9.999999e-001  0.000000e+000
    outer loop
      vertex -2.025000e+001  7.189843e+001  1.500000e+000
      vertex  2.025000e+001  7.189843e+001  1.500000e+000
      vertex -2.025000e+001  7.189843e+001  0.000000e+000
    endloop
  endfacet
  facet normal  0.000000e+000  9.999999e-001  0.000000e+000
    outer loop
      vertex -2.025000e+001  7.189843e+001  0.000000e+000
      vertex  2.025000e+001  7.189843e+001  1.500000e+000
      vertex  2.025000e+001  7.189843e+001  0.000000e+000
    endloop
  endfacet
  facet normal  1.564394e-001  9.876876e-001  0.000000e+000
    outer loop
      vertex  2.025000e+001  7.189843e+001  0.000000e+000
      vertex  2.025000e+001  7.189843e+001  1.500000e+000
      vertex  2.071353e+001  7.182501e+001  0.000000e+000
    endloop
  endfacet
  facet normal  1.564394e-001  9.876876e-001  -0.000000e+000
    outer loop
      vertex  2.071353e+001  7.182501e+001  0.000000e+000
      vertex  2.025000e+001  7.189843e+001  1.500000e+000
      vertex  2.071353e+001  7.182501e+001  1.500000e+000
    endloop
  endfacet
  facet normal  4.539896e-001  8.910070e-001  0.000000e+000
    outer loop
      vertex  2.071353e+001  7.182501e+001  0.000000e+000
      vertex  2.071353e+001  7.182501e+001  1.500000e+000
      vertex  2.113168e+001  7.161195e+001  0.000000e+000
    endloop
  endfacet
  facet normal  4.539896e-001  8.910070e-001  -0.000000e+000
    outer loop
      vertex  2.113168e+001  7.161195e+001  0.000000e+000
      vertex  2.071353e+001  7.182501e+001  1.500000e+000
      vertex  2.113168e+001  7.161195e+001  1.500000e+000
    endloop
  endfacet
  facet normal  7.071068e-001  7.071068e-001  0.000000e+000
    outer loop
      vertex  2.113168e+001  7.161195e+001  0.000000e+000
      vertex  2.113168e+001  7.161195e+001  1.500000e+000
      vertex  2.146353e+001  7.128011e+001  0.000000e+000
    endloop
  endfacet
  facet normal  7.071068e-001  7.071068e-001  -0.000000e+000
    outer loop
      vertex  2.146353e+001  7.128011e+001  0.000000e+000
      vertex  2.113168e+001  7.161195e+001  1.500000e+000
      vertex  2.146353e+001  7.128011e+001  1.500000e+000
    endloop
  endfacet
  facet normal  8.910070e-001  4.539896e-001  0.000000e+000
    outer loop
      vertex  2.146353e+001  7.128011e+001  0.000000e+000
      vertex  2.146353e+001  7.128011e+001  1.500000e+000
      vertex  2.167658e+001  7.086195e+001  0.000000e+000
    endloop
  endfacet
  facet normal  8.910070e-001  4.539896e-001  -0.000000e+000
    outer loop
      vertex  2.167658e+001  7.086195e+001  0.000000e+000
      vertex  2.146353e+001  7.128011e+001  1.500000e+000
      vertex  2.167658e+001  7.086195e+001  1.500000e+000
    endloop
  endfacet
  facet normal  9.876881e-001  1.564361e-001  0.000000e+000
    outer loop
      vertex  2.167658e+001  7.086195e+001  0.000000e+000
      vertex  2.167658e+001  7.086195e+001  1.500000e+000
      vertex  2.175000e+001  7.039843e+001  0.000000e+000
    endloop
  endfacet
  facet normal  9.876881e-001  1.564361e-001  -0.000000e+000
    outer loop
      vertex  2.175000e+001  7.039843e+001  0.000000e+000
      vertex  2.167658e+001  7.086195e+001  1.500000e+000
      vertex  2.175000e+001  7.039843e+001  1.500000e+000
    endloop
  endfacet
  facet normal  0.000000e+000 -9.999999e-001  0.000000e+000
    outer loop
      vertex  2.025000e+001  2.589843e+001  1.500000e+000
      vertex -2.025000e+001  2.589843e+001  1.500000e+000
      vertex  2.025000e+001  2.589843e+001  0.000000e+000
    endloop
  endfacet
  facet normal  0.000000e+000 -9.999999e-001  0.000000e+000
    outer loop
      vertex  2.025000e+001  2.589843e+001  0.000000e+000
      vertex -2.025000e+001  2.589843e+001  1.500000e+000
      vertex -2.025000e+001  2.589843e+001  0.000000e+000
    endloop
  endfacet
  facet normal  9.876881e-001 -1.564355e-001  0.000000e+000
    outer loop
      vertex  2.175000e+001  2.739843e+001  0.000000e+000
      vertex  2.175000e+001  2.739843e+001  1.500000e+000
      vertex  2.167658e+001  2.693490e+001  0.000000e+000
    endloop
  endfacet
  facet normal  9.876881e-001 -1.564355e-001  0.000000e+000
    outer loop
      vertex  2.167658e+001  2.693490e+001  0.000000e+000
      vertex  2.175000e+001  2.739843e+001  1.500000e+000
      vertex  2.167658e+001  2.693490e+001  1.500000e+000
    endloop
  endfacet
  facet normal  8.910070e-001 -4.539896e-001  0.000000e+000
    outer loop
      vertex  2.167658e+001  2.693490e+001  0.000000e+000
      vertex  2.167658e+001  2.693490e+001  1.500000e+000
      vertex  2.146353e+001  2.651675e+001  0.000000e+000
    endloop
  endfacet
  facet normal  8.910070e-001 -4.539896e-001  0.000000e+000
    outer loop
      vertex  2.146353e+001  2.651675e+001  0.000000e+000
      vertex  2.167658e+001  2.693490e+001  1.500000e+000
      vertex  2.146353e+001  2.651675e+001  1.500000e+000
    endloop
  endfacet
  facet normal  7.071068e-001 -7.071068e-001  0.000000e+000
    outer loop
      vertex  2.146353e+001  2.651675e+001  0.000000e+000
      vertex  2.146353e+001  2.651675e+001  1.500000e+000
      vertex  2.113168e+001  2.618490e+001  0.000000e+000
    endloop
  endfacet
  facet normal  7.071068e-001 -7.071068e-001  0.000000e+000
    outer loop
      vertex  2.113168e+001  2.618490e+001  0.000000e+000
      vertex  2.146353e+001  2.651675e+001  1.500000e+000
      vertex  2.113168e+001  2.618490e+001  1.500000e+000
    endloop
  endfacet
  facet normal  4.539896e-001 -8.910070e-001  0.000000e+000
    outer loop
      vertex  2.113168e+001  2.618490e+001  0.000000e+000
      vertex  2.113168e+001  2.618490e+001  1.500000e+000
      vertex  2.071353e+001  2.597185e+001  0.000000e+000
    endloop
  endfacet
  facet normal  4.539896e-001 -8.910070e-001  0.000000e+000
    outer loop
      vertex  2.071353e+001  2.597185e+001  0.000000e+000
      vertex  2.113168e+001  2.618490e+001  1.500000e+000
      vertex  2.071353e+001  2.597185e+001  1.500000e+000
    endloop
  endfacet
  facet normal  1.564355e-001 -9.876881e-001  0.000000e+000
    outer loop
      vertex  2.071353e+001  2.597185e+001  0.000000e+000
      vertex  2.071353e+001  2.597185e+001  1.500000e+000
      vertex  2.025000e+001  2.589843e+001  0.000000e+000
    endloop
  endfacet
  facet normal  1.564355e-001 -9.876881e-001  0.000000e+000
    outer loop
      vertex  2.025000e+001  2.589843e+001  0.000000e+000
      vertex  2.071353e+001  2.597185e+001  1.500000e+000
      vertex  2.025000e+001  2.589843e+001  1.500000e+000
    endloop
  endfacet
  facet normal -1.000000e+000  0.000000e+000  0.000000e+000
    outer loop
      vertex -2.175000e+001  7.039843e+001  1.500000e+000
      vertex -2.175000e+001  7.039843e+001  0.000000e+000
      vertex -2.175000e+001  2.739843e+001  1.500000e+000
    endloop
  endfacet
  facet normal -1.000000e+000  0.000000e+000  0.000000e+000
    outer loop
      vertex -2.175000e+001  2.739843e+001  1.500000e+000
      vertex -2.175000e+001  7.039843e+001  0.000000e+000
      vertex -2.175000e+001  2.739843e+001  0.000000e+000
    endloop
  endfacet
  facet normal -9.876881e-001  1.564361e-001  0.000000e+000
    outer loop
      vertex -2.175000e+001  7.039843e+001  0.000000e+000
      vertex -2.175000e+001  7.039843e+001  1.500000e+000
      vertex -2.167658e+001  7.086195e+001  0.000000e+000
    endloop
  endfacet
  facet normal -9.876881e-001  1.564361e-001  0.000000e+000
    outer loop
      vertex -2.167658e+001  7.086195e+001  0.000000e+000
      vertex -2.175000e+001  7.039843e+001  1.500000e+000
      vertex -2.167658e+001  7.086195e+001  1.500000e+000
    endloop
  endfacet
  facet normal -8.910070e-001  4.539896e-001  0.000000e+000
    outer loop
      vertex -2.167658e+001  7.086195e+001  0.000000e+000
      vertex -2.167658e+001  7.086195e+001  1.500000e+000
      vertex -2.146353e+001  7.128011e+001  0.000000e+000
    endloop
  endfacet
  facet normal -8.910070e-001  4.539896e-001  0.000000e+000
    outer loop
      vertex -2.146353e+001  7.128011e+001  0.000000e+000
      vertex -2.167658e+001  7.086195e+001  1.500000e+000
      vertex -2.146353e+001  7.128011e+001  1.500000e+000
    endloop
  endfacet
  facet normal -7.071068e-001  7.071068e-001  0.000000e+000
    outer loop
      vertex -2.146353e+001  7.128011e+001  0.000000e+000
      vertex -2.146353e+001  7.128011e+001  1.500000e+000
      vertex -2.113168e+001  7.161195e+001  0.000000e+000
    endloop
  endfacet
  facet normal -7.071068e-001  7.071068e-001  0.000000e+000
    outer loop
      vertex -2.113168e+001  7.161195e+001  0.000000e+000
      vertex -2.146353e+001  7.128011e+001  1.500000e+000
      vertex -2.113168e+001  7.161195e+001  1.500000e+000
    endloop
  endfacet
  facet normal -4.539896e-001  8.910070e-001  0.000000e+000
    outer loop
      vertex -2.113168e+001  7.161195e+001  0.000000e+000
      vertex -2.113168e+001  7.161195e+001  1.500000e+000
      vertex -2.071353e+001  7.182501e+001  0.000000e+000
    endloop
  endfacet
  facet normal -4.539896e-001  8.910070e-001  0.000000e+000
    outer loop
      vertex -2.071353e+001  7.182501e+001  0.000000e+000
      vertex -2.113168e+001  7.161195e+001  1.500000e+000
      vertex -2.071353e+001  7.182501e+001  1.500000e+000
    endloop
  endfacet
  facet normal -1.564394e-001  9.876876e-001  0.000000e+000
    outer loop
      vertex -2.071353e+001  7.182501e+001  0.000000e+000
      vertex -2.071353e+001  7.182501e+001  1.500000e+000
      vertex -2.025000e+001  7.189843e+001  0.000000e+000
    endloop
  endfacet
  facet normal -1.564394e-001  9.876876e-001  0.000000e+000
    outer loop
      vertex -2.025000e+001  7.189843e+001  0.000000e+000
      vertex -2.071353e+001  7.182501e+001  1.500000e+000
      vertex -2.025000e+001  7.189843e+001  1.500000e+000
    endloop
  endfacet
  facet normal -1.564355e-001 -9.876881e-001  -0.000000e+000
    outer loop
      vertex -2.025000e+001  2.589843e+001  0.000000e+000
      vertex -2.025000e+001  2.589843e+001  1.500000e+000
      vertex -2.071353e+001  2.597185e+001  0.000000e+000
    endloop
  endfacet
  facet normal -1.564355e-001 -9.876881e-001  0.000000e+000
    outer loop
      vertex -2.071353e+001  2.597185e+001  0.000000e+000
      vertex -2.025000e+001  2.589843e+001  1.500000e+000
      vertex -2.071353e+001  2.597185e+001  1.500000e+000
    endloop
  endfacet
  facet normal -4.539896e-001 -8.910070e-001  -0.000000e+000
    outer loop
      vertex -2.071353e+001  2.597185e+001  0.000000e+000
      vertex -2.071353e+001  2.597185e+001  1.500000e+000
      vertex -2.113168e+001  2.618490e+001  0.000000e+000
    endloop
  endfacet
  facet normal -4.539896e-001 -8.910070e-001  0.000000e+000
    outer loop
      vertex -2.113168e+001  2.618490e+001  0.000000e+000
      vertex -2.071353e+001  2.597185e+001  1.500000e+000
      vertex -2.113168e+001  2.618490e+001  1.500000e+000
    endloop
  endfacet
  facet normal -7.071068e-001 -7.071068e-001  -0.000000e+000
    outer loop
      vertex -2.113168e+001  2.618490e+001  0.000000e+000
      vertex -2.113168e+001  2.618490e+001  1.500000e+000
      vertex -2.146353e+001  2.651675e+001  0.000000e+000
    endloop
  endfacet
  facet normal -7.071068e-001 -7.071068e-001  0.000000e+000
    outer loop
      vertex -2.146353e+001  2.651675e+001  0.000000e+000
      vertex -2.113168e+001  2.618490e+001  1.500000e+000
      vertex -2.146353e+001  2.651675e+001  1.500000e+000
    endloop
  endfacet
  facet normal -8.910070e-001 -4.539896e-001  -0.000000e+000
    outer loop
      vertex -2.146353e+001  2.651675e+001  0.000000e+000
      vertex -2.146353e+001  2.651675e+001  1.500000e+000
      vertex -2.167658e+001  2.693490e+001  0.000000e+000
    endloop
  endfacet
  facet normal -8.910070e-001 -4.539896e-001  0.000000e+000
    outer loop
      vertex -2.167658e+001  2.693490e+001  0.000000e+000
      vertex -2.146353e+001  2.651675e+001  1.500000e+000
      vertex -2.167658e+001  2.693490e+001  1.500000e+000
    endloop
  endfacet
  facet normal -9.876881e-001 -1.564355e-001  -0.000000e+000
    outer loop
      vertex -2.167658e+001  2.693490e+001  0.000000e+000
      vertex -2.167658e+001  2.693490e+001  1.500000e+000
      vertex -2.175000e+001  2.739843e+001  0.000000e+000
    endloop
  endfacet
  facet normal -9.876881e-001 -1.564355e-001  0.000000e+000
    outer loop
      vertex -2.175000e+001  2.739843e+001  0.000000e+000
      vertex -2.167658e+001  2.693490e+001  1.500000e+000
      vertex -2.175000e+001  2.739843e+001  1.500000e+000
    endloop
  endfacet
  facet normal  0.000000e+000  1.000000e+000  0.000000e+000
    outer loop
      vertex -6.150000e+000  3.659843e+001  3.500000e+000
      vertex  6.150000e+000  3.659843e+001  3.500000e+000
      vertex -6.150000e+000  3.659843e+001  1.500000e+000
    endloop
  endfacet
  facet normal  0.000000e+000  1.000000e+000  0.000000e+000
    outer loop
      vertex -6.150000e+000  3.659843e+001  1.500000e+000
      vertex  6.150000e+000  3.659843e+001  3.500000e+000
      vertex  6.150000e+000  3.659843e+001  1.500000e+000
    endloop
  endfacet
  facet normal  0.000000e+000 -1.000000e+000  0.000000e+000
    outer loop
      vertex -5.150000e+000  3.559843e+001  3.500000e+000
      vertex -5.150000e+000  3.559843e+001  1.500000e+000
      vertex  5.150000e+000  3.559843e+001  3.500000e+000
    endloop
  endfacet
  facet normal  0.000000e+000 -1.000000e+000  -0.000000e+000
    outer loop
      vertex  5.150000e+000  3.559843e+001  3.500000e+000
      vertex -5.150000e+000  3.559843e+001  1.500000e+000
      vertex  5.150000e+000  3.559843e+001  1.500000e+000
    endloop
  endfacet
endsolid CATIA STL
